<svg width="221" height="190" viewBox="0 0 221 190" fill="none" xmlns="http://www.w3.org/2000/svg">
<path d="M10.9404 -205.609C13.3699 -205.609 15.3021 -207.885 15.3213 -210.678V-224.911C15.3021 -227.704 13.3699 -229.981 10.9978 -230H10.9595C8.56821 -230 6.6169 -227.723 6.6169 -224.93V-210.697C6.6169 -207.904 8.56821 -205.628 10.9595 -205.628L10.9404 -205.609Z" fill="white" fill-opacity="0.1"/>
<path d="M-6.69788 -209.913C-6.50658 -207.12 -4.40222 -204.977 -2.01091 -205.15C0.399521 -205.322 2.17867 -207.732 2.00648 -210.525L0.992569 -224.72C0.782135 -227.513 -1.30309 -229.637 -3.67526 -229.483H-3.71352C-6.10483 -229.311 -7.90309 -226.901 -7.69266 -224.108L-6.69788 -209.913Z" fill="white" fill-opacity="0.1"/>
<path d="M-19.8979 -208.23C-19.4961 -205.456 -17.2579 -203.466 -14.8857 -203.81C-12.4753 -204.155 -10.8874 -206.68 -11.2701 -209.454L-13.2596 -223.534C-13.6614 -226.308 -15.8996 -228.278 -18.2527 -227.972H-18.2909C-20.6631 -227.628 -22.2892 -225.103 -21.8874 -222.329L-19.8979 -208.23Z" fill="white" fill-opacity="0.1"/>
<path d="M-32.964 -205.628C-32.3709 -202.892 -29.9987 -201.075 -27.6648 -201.572C-25.2927 -202.089 -23.877 -204.71 -24.4509 -207.445L-27.4161 -221.353C-28.0092 -224.089 -30.3814 -225.906 -32.6962 -225.428H-32.7344C-35.0683 -224.911 -36.5222 -222.271 -35.9292 -219.555L-32.964 -205.628Z" fill="white" fill-opacity="0.1"/>
<path d="M-45.8005 -202.127C-45.0353 -199.43 -42.5292 -197.784 -40.2336 -198.454C-37.8996 -199.123 -36.6562 -201.84 -37.4214 -204.537L-41.3622 -218.197C-42.1466 -220.875 -44.6336 -222.539 -46.9101 -221.889H-46.9483C-49.244 -221.219 -50.5066 -218.483 -49.7222 -215.805L-45.8005 -202.127Z" fill="white" fill-opacity="0.1"/>
<path d="M-58.3692 -197.727C-57.4126 -195.087 -54.7918 -193.633 -52.5535 -194.437C-50.277 -195.278 -49.2248 -198.071 -50.1813 -200.711L-55.0596 -214.083C-56.0161 -216.704 -58.6179 -218.177 -60.8561 -217.374H-60.8944C-63.1518 -216.532 -64.2039 -213.72 -63.2474 -211.099L-58.3692 -197.727Z" fill="white" fill-opacity="0.1"/>
<path d="M-70.5936 -192.466C-69.4457 -189.903 -66.7483 -188.621 -64.5675 -189.597C-62.3483 -190.591 -61.5066 -193.461 -62.6353 -196.005L-68.4318 -208.995C-69.5796 -211.539 -72.277 -212.84 -74.4388 -211.883H-74.477C-76.6579 -210.889 -77.5188 -208 -76.3901 -205.456L-70.5936 -192.447V-192.466Z" fill="white" fill-opacity="0.1"/>
<path d="M-82.4161 -186.383C-81.0961 -183.915 -78.3031 -182.824 -76.1987 -183.934C-74.0561 -185.082 -73.4057 -187.99 -74.7257 -190.477L-81.4214 -203.026C-82.7414 -205.494 -85.5153 -206.584 -87.6196 -205.494H-87.6579C-89.7814 -204.346 -90.4318 -201.419 -89.1118 -198.951L-82.4161 -186.383Z" fill="white" fill-opacity="0.1"/>
<path d="M-93.7988 -179.457C-92.3066 -177.085 -89.4561 -176.186 -87.4283 -177.449C-85.3622 -178.73 -84.9222 -181.696 -86.4144 -184.068L-93.9709 -196.12C-95.4631 -198.492 -98.3135 -199.391 -100.322 -198.148H-100.36C-102.388 -196.847 -102.847 -193.882 -101.355 -191.51L-93.8179 -179.438L-93.7988 -179.457Z" fill="white" fill-opacity="0.1"/>
<path d="M-104.665 -171.786C-103.02 -169.529 -100.093 -168.821 -98.1796 -170.237C-96.2092 -171.671 -95.9796 -174.637 -97.6248 -176.913L-106.004 -188.41C-107.649 -190.668 -110.557 -191.376 -112.489 -189.979H-112.508C-114.44 -188.544 -114.689 -185.541 -113.044 -183.283L-104.665 -171.767V-171.786Z" fill="white" fill-opacity="0.1"/>
<path d="M-114.976 -163.369C-113.178 -161.226 -110.213 -160.729 -108.395 -162.278C-106.54 -163.847 -106.521 -166.831 -108.3 -168.974L-117.463 -179.859C-119.261 -182.002 -122.227 -182.499 -124.044 -180.969V-180.93C-125.9 -179.4 -125.938 -176.397 -124.14 -174.254L-114.995 -163.35L-114.976 -163.369Z" fill="white" fill-opacity="0.1"/>
<path d="M-124.656 -154.243C-122.705 -152.235 -119.721 -151.948 -117.999 -153.612C-116.258 -155.296 -116.449 -158.28 -118.381 -160.308L-128.272 -170.523C-130.223 -172.532 -133.207 -172.819 -134.91 -171.174V-171.136C-136.67 -169.471 -136.479 -166.468 -134.547 -164.459L-124.656 -154.224V-154.243Z" fill="white" fill-opacity="0.1"/>
<path d="M-144.265 -153.995L-133.686 -144.468C-131.6 -142.593 -128.597 -142.517 -127.009 -144.296C-125.383 -146.094 -125.785 -149.059 -127.851 -150.953L-138.43 -160.461C-140.515 -162.317 -143.5 -162.412 -145.107 -160.652V-160.614C-146.733 -158.835 -146.35 -155.85 -144.265 -153.995Z" fill="white" fill-opacity="0.1"/>
<path d="M-153.237 -142.842L-142.007 -134.08C-139.788 -132.358 -136.804 -132.492 -135.331 -134.386C-133.839 -136.299 -134.432 -139.226 -136.632 -140.967L-147.861 -149.71C-150.08 -151.431 -153.065 -151.297 -154.519 -149.442V-149.403C-156.011 -147.51 -155.418 -144.563 -153.218 -142.861L-153.237 -142.842Z" fill="white" fill-opacity="0.1"/>
<path d="M-161.406 -131.115L-149.602 -123.157C-147.268 -121.588 -144.303 -121.932 -142.964 -123.922C-141.606 -125.93 -142.409 -128.819 -144.724 -130.388L-156.527 -138.327C-158.861 -139.877 -161.827 -139.551 -163.147 -137.6V-137.562C-164.505 -135.572 -163.701 -132.683 -161.387 -131.115H-161.406Z" fill="white" fill-opacity="0.1"/>
<path d="M-168.733 -118.833L-156.394 -111.717C-153.964 -110.32 -151.018 -110.875 -149.832 -112.941C-148.627 -115.045 -149.621 -117.857 -152.032 -119.273L-164.371 -126.37C-166.8 -127.767 -169.747 -127.231 -170.933 -125.165V-125.127C-172.138 -123.061 -171.143 -120.23 -168.733 -118.833Z" fill="white" fill-opacity="0.1"/>
<path d="M-175.18 -106.073L-162.381 -99.8365C-159.856 -98.6122 -156.967 -99.3774 -155.915 -101.52C-154.863 -103.701 -156.049 -106.437 -158.555 -107.68L-171.354 -113.897C-173.879 -115.122 -176.767 -114.376 -177.82 -112.252V-112.214C-178.891 -110.071 -177.686 -107.317 -175.18 -106.092V-106.073Z" fill="white" fill-opacity="0.1"/>
<path d="M-180.727 -92.8922L-167.527 -87.5548C-164.926 -86.5026 -162.094 -87.4591 -161.195 -89.6782C-160.296 -91.9356 -161.674 -94.5756 -164.256 -95.6278L-177.456 -100.946C-180.058 -101.979 -182.889 -101.042 -183.788 -98.8609V-98.8226C-184.687 -96.6035 -183.31 -93.9443 -180.727 -92.8922Z" fill="white" fill-opacity="0.1"/>
<path d="M-185.338 -79.3478L-171.794 -74.9478C-169.134 -74.0869 -166.361 -75.2348 -165.634 -77.5113C-164.887 -79.8261 -166.456 -82.3704 -169.115 -83.2504L-182.66 -87.6313C-185.319 -88.4922 -188.093 -87.3443 -188.82 -85.1061V-85.0678C-189.566 -82.7913 -187.997 -80.2278 -185.338 -79.3669V-79.3478Z" fill="white" fill-opacity="0.1"/>
<path d="M-188.992 -65.5356L-175.161 -62.0922C-172.444 -61.4226 -169.766 -62.7617 -169.192 -65.0765C-168.618 -67.4296 -170.34 -69.8591 -173.056 -70.5478L-186.868 -73.9722C-189.585 -74.6418 -192.263 -73.3217 -192.837 -71.007V-70.9687C-193.43 -68.6539 -191.67 -66.2052 -188.973 -65.5165L-188.992 -65.5356Z" fill="white" fill-opacity="0.1"/>
<path d="M-191.689 -51.4939L-177.667 -49.0261C-174.912 -48.5478 -172.329 -50.0783 -171.927 -52.4122C-171.507 -54.8035 -173.42 -57.1183 -176.174 -57.5965L-190.197 -60.0452C-192.952 -60.5235 -195.534 -59.0122 -195.955 -56.6783V-56.64C-196.376 -54.287 -194.463 -51.953 -191.708 -51.4748L-191.689 -51.4939Z" fill="white" fill-opacity="0.1"/>
<path d="M-193.373 -37.2991L-179.197 -35.807C-176.404 -35.52 -173.936 -37.2226 -173.707 -39.5948C-173.458 -42.0052 -175.524 -44.1861 -178.298 -44.4731L-192.454 -45.9461C-195.228 -46.233 -197.696 -44.5496 -197.964 -42.1965V-42.1583C-198.213 -39.7861 -196.147 -37.5861 -193.373 -37.2991Z" fill="white" fill-opacity="0.1"/>
<path d="M-194.08 -23.0087L-179.847 -22.5113C-177.054 -22.4348 -174.701 -24.2904 -174.625 -26.6817C-174.548 -29.1113 -176.748 -31.12 -179.541 -31.2348L-193.774 -31.713C-196.567 -31.8087 -198.92 -29.953 -198.997 -27.5809V-27.5426C-199.074 -25.1513 -196.874 -23.1235 -194.08 -23.0278V-23.0087Z" fill="white" fill-opacity="0.1"/>
<path d="M-193.774 -8.71825L-179.541 -9.21565C-176.748 -9.31131 -174.529 -11.3583 -174.625 -13.7304C-174.72 -16.16 -177.054 -18.0156 -179.847 -17.92L-194.08 -17.4035C-196.874 -17.2887 -199.093 -15.28 -198.997 -12.9078V-12.8696C-198.901 -10.4782 -196.567 -8.60345 -193.774 -8.69911V-8.71825Z" fill="white" fill-opacity="0.1"/>
<path d="M-192.493 5.51477L-178.317 4.02261C-175.543 3.71652 -173.477 1.53566 -173.726 -0.836517C-173.974 -3.24695 -176.442 -4.93045 -179.235 -4.64349L-193.392 -3.15131C-196.166 -2.84521 -198.232 -0.683487 -198.002 1.66956V1.70782C-197.734 4.08 -195.267 5.80174 -192.493 5.49565V5.51477Z" fill="white" fill-opacity="0.1"/>
<path d="M-190.197 19.633L-176.174 17.1652C-173.42 16.6678 -171.526 14.353 -171.927 12C-172.348 9.60867 -174.931 8.0974 -177.686 8.57565L-191.708 11.0626C-194.463 11.56 -196.376 13.8557 -195.955 16.1896V16.2278C-195.534 18.5809 -192.933 20.1113 -190.197 19.633Z" fill="white" fill-opacity="0.1"/>
<path d="M-186.945 33.56L-173.114 30.1165C-170.397 29.4278 -168.656 26.9983 -169.249 24.6835C-169.842 22.3304 -172.521 20.9913 -175.237 21.6609L-189.049 25.1235C-191.766 25.8121 -193.507 28.2417 -192.933 30.5374V30.5757C-192.34 32.9096 -189.642 34.2487 -186.945 33.56Z" fill="white" fill-opacity="0.1"/>
<path d="M-169.154 42.8191C-166.494 41.9583 -164.926 39.3948 -165.672 37.1183C-166.437 34.8035 -169.192 33.6748 -171.851 34.5357L-185.395 38.9548C-188.054 39.8157 -189.623 42.3792 -188.896 44.6174V44.6557C-188.131 46.9322 -185.357 48.08 -182.717 47.2191L-169.173 42.8191H-169.154Z" fill="white" fill-opacity="0.1"/>
<path d="M-164.333 55.2157C-161.75 54.1635 -160.373 51.5043 -161.272 49.2852C-162.19 47.0278 -165.021 46.0904 -167.623 47.1426L-180.823 52.48C-183.406 53.5322 -184.802 56.1913 -183.922 58.3722V58.4104C-183.004 60.6295 -180.154 61.5861 -177.571 60.553L-164.352 55.2157H-164.333Z" fill="white" fill-opacity="0.1"/>
<path d="M-158.651 67.2296C-156.145 66.0052 -154.959 63.2504 -155.992 61.1078C-157.063 58.9269 -159.952 58.1809 -162.477 59.4052L-175.275 65.6609C-177.781 66.8852 -178.987 69.6208 -177.954 71.7635V71.8017C-176.882 73.9443 -173.974 74.7095 -171.468 73.4852L-158.651 67.2487V67.2296Z" fill="white" fill-opacity="0.1"/>
<path d="M-149.908 72.5479C-151.133 70.4436 -154.079 69.9079 -156.489 71.3044L-168.809 78.4209C-171.22 79.8174 -172.234 82.6487 -171.047 84.6957V84.734C-169.823 86.8192 -166.877 87.3548 -164.467 85.9583L-152.127 78.8418C-149.717 77.4453 -148.722 74.614 -149.908 72.5479Z" fill="white" fill-opacity="0.1"/>
<path d="M-143.06 83.5286C-144.418 81.5199 -147.402 81.1756 -149.717 82.7443L-161.521 90.7025C-163.835 92.2712 -164.639 95.1408 -163.319 97.1112H-163.3C-161.96 99.1199 -158.976 99.4643 -156.661 97.9147L-144.839 89.9565C-142.524 88.3878 -141.74 85.4991 -143.06 83.5286Z" fill="white" fill-opacity="0.1"/>
<path d="M-135.446 94.0121C-136.938 92.0991 -139.922 91.9652 -142.141 93.6869L-153.352 102.468C-155.552 104.19 -156.145 107.116 -154.691 108.991H-154.672C-153.199 110.904 -150.195 111.038 -147.995 109.316L-136.766 100.555C-134.566 98.833 -133.973 95.8869 -135.446 94.0121Z" fill="white" fill-opacity="0.1"/>
<path d="M-127.124 103.922C-128.75 102.124 -131.734 102.2 -133.82 104.075L-144.399 113.602C-146.465 115.477 -146.867 118.442 -145.279 120.202H-145.26C-143.653 122 -140.649 121.924 -138.583 120.068L-127.985 110.541C-125.919 108.666 -125.517 105.682 -127.124 103.922Z" fill="white" fill-opacity="0.1"/>
<path d="M-118.133 113.238C-119.874 111.555 -122.858 111.842 -124.809 113.85L-134.7 124.085C-136.632 126.094 -136.823 129.097 -135.12 130.723H-135.082C-133.36 132.407 -130.376 132.12 -128.425 130.13L-118.515 119.896C-116.583 117.887 -116.392 114.883 -118.114 113.238H-118.133Z" fill="white" fill-opacity="0.1"/>
<path d="M-108.51 121.904C-110.366 120.355 -113.312 120.852 -115.129 122.995L-124.274 133.899C-126.072 136.042 -126.053 139.026 -124.235 140.557H-124.197C-122.361 142.125 -119.395 141.628 -117.597 139.485L-108.434 128.581C-106.635 126.438 -106.674 123.435 -108.51 121.904Z" fill="white" fill-opacity="0.1"/>
<path d="M-98.2944 129.882C-100.265 128.466 -103.173 129.155 -104.818 131.431L-113.178 142.948C-114.804 145.205 -114.594 148.19 -112.661 149.586H-112.623C-110.691 151.021 -107.764 150.313 -106.119 148.056L-97.7396 136.539C-96.0944 134.282 -96.3431 131.278 -98.2753 129.882H-98.2944Z" fill="white" fill-opacity="0.1"/>
<path d="M-87.5622 137.132C-89.6283 135.85 -92.4788 136.75 -93.9518 139.122L-101.489 151.193C-102.962 153.565 -102.522 156.53 -100.514 157.774H-100.475C-98.4475 159.056 -95.5779 158.157 -94.1049 155.803L-86.5483 143.732C-85.0753 141.36 -85.5153 138.395 -87.5431 137.132H-87.5622Z" fill="white" fill-opacity="0.1"/>
<path d="M-76.3518 143.617C-78.4944 142.489 -81.2875 143.579 -82.5883 146.047L-89.2648 158.616C-90.5657 161.083 -89.9344 164.01 -87.8301 165.12H-87.7918C-85.6875 166.268 -82.8753 165.158 -81.5744 162.71L-74.8788 150.141C-73.5779 147.673 -74.2283 144.746 -76.3327 143.617H-76.3518Z" fill="white" fill-opacity="0.1"/>
<path d="M-64.7014 149.28C-66.9205 148.304 -69.6179 149.586 -70.7657 152.15L-76.5431 165.158C-77.6718 167.703 -76.8301 170.591 -74.6683 171.548H-74.6301C-72.4492 172.543 -69.7327 171.242 -68.604 168.697L-62.8075 155.689C-61.6788 153.144 -62.5396 150.256 -64.7205 149.299L-64.7014 149.28Z" fill="white" fill-opacity="0.1"/>
<path d="M-52.7066 154.139C-54.9831 153.317 -57.5849 154.79 -58.5414 157.43L-63.4005 170.802C-64.357 173.423 -63.3049 176.235 -61.0857 177.038H-61.0475C-58.7901 177.861 -56.1883 176.388 -55.2318 173.786L-50.3536 160.395C-49.397 157.774 -50.4683 154.962 -52.7066 154.139Z" fill="white" fill-opacity="0.1"/>
<path d="M-40.3866 158.157C-42.7205 157.487 -45.2075 159.151 -45.9918 161.83L-49.9135 175.508C-50.6788 178.186 -49.4353 180.922 -47.1588 181.572H-47.1205C-44.8248 182.242 -42.3188 180.577 -41.5344 177.899L-37.6127 164.202C-36.8475 161.523 -38.0909 158.788 -40.3866 158.137V158.157Z" fill="white" fill-opacity="0.1"/>
<path d="M-27.8179 161.294C-30.1901 160.797 -32.5622 162.614 -33.1553 165.35L-36.1014 179.277C-36.6753 182.012 -35.2596 184.652 -32.9449 185.13H-32.9066C-30.5727 185.628 -28.1814 183.81 -27.5883 181.075L-24.6231 167.148C-24.0492 164.412 -25.484 161.772 -27.8179 161.294Z" fill="white" fill-opacity="0.1"/>
<path d="M-15.0579 163.532C-17.4683 163.207 -19.7066 165.177 -20.0892 167.951L-22.0596 182.05C-22.4423 184.805 -20.8353 187.35 -18.5014 187.675H-18.4631C-16.0909 188 -13.8336 186.03 -13.451 183.256L-11.4614 169.157C-11.0788 166.383 -12.7049 163.857 -15.0579 163.532Z" fill="white" fill-opacity="0.1"/>
<path d="M-2.18314 164.89C-4.6127 164.737 -6.69792 166.861 -6.88922 169.654L-7.86487 183.849C-8.05617 186.623 -6.27704 189.052 -3.924 189.205H-3.88574C-1.49443 189.377 0.609924 187.235 0.801224 184.442L1.79601 170.228C1.9873 167.435 0.189041 165.024 -2.18314 164.871V164.89Z" fill="white" fill-opacity="0.1"/>
<path d="M10.7682 165.35C8.33865 165.35 6.40648 167.626 6.40648 170.438V184.671C6.40648 187.464 8.35777 189.741 10.7299 189.741H10.7682C13.1595 189.741 15.1108 187.464 15.1108 184.671V170.438C15.1108 167.645 13.1404 165.369 10.7682 165.369V165.35Z" fill="white" fill-opacity="0.1"/>
<path d="M28.4065 169.673C28.196 166.88 26.0917 164.757 23.7195 164.91C21.3091 165.082 19.5108 167.492 19.7212 170.285L20.716 184.48C20.9073 187.254 23.0117 189.397 25.3647 189.243H25.403C27.7943 189.071 29.5734 186.661 29.3821 183.868L28.3873 169.654L28.4065 169.673Z" fill="white" fill-opacity="0.1"/>
<path d="M41.6065 167.99C41.2047 165.216 38.9473 163.245 36.5943 163.57C34.1839 163.915 32.596 166.44 32.9787 169.214L34.9682 183.294C35.3508 186.049 37.6082 188.057 39.9421 187.713H39.9804C42.3526 187.369 43.9786 184.843 43.5769 182.07L41.6065 167.97V167.99Z" fill="white" fill-opacity="0.1"/>
<path d="M54.6725 165.388C54.0795 162.652 51.6882 160.835 49.3543 161.332C46.9821 161.849 45.5665 164.47 46.1404 167.205L49.1056 181.113C49.6795 183.83 52.0708 185.666 54.3856 185.188H54.4238C56.7578 184.671 58.2117 182.05 57.6186 179.315L54.6534 165.388H54.6725Z" fill="white" fill-opacity="0.1"/>
<path d="M67.5091 161.868C66.7247 159.19 64.2186 157.544 61.9229 158.195C59.6082 158.883 58.3647 161.6 59.1299 164.278L63.0517 177.957C63.8169 180.635 66.323 182.299 68.5995 181.649H68.6378C70.9334 180.979 72.196 178.243 71.4117 175.565L67.4899 161.887L67.5091 161.868Z" fill="white" fill-opacity="0.1"/>
<path d="M80.0778 157.487C79.1213 154.866 76.5004 153.393 74.243 154.216C71.9665 155.057 70.9143 157.85 71.89 160.49L76.7682 173.863C77.7248 176.483 80.3456 177.956 82.5648 177.153H82.603C84.8604 176.311 85.9126 173.499 84.9561 170.878L80.0969 157.506L80.0778 157.487Z" fill="white" fill-opacity="0.1"/>
<path d="M92.3021 152.226C91.1543 149.682 88.4378 148.4 86.2569 149.357C84.0569 150.351 83.196 153.221 84.3438 155.784L90.1404 168.774C91.269 171.318 93.9856 172.619 96.1473 171.663H96.1856C98.3665 170.668 99.2273 167.798 98.0986 165.235L92.3021 152.226Z" fill="white" fill-opacity="0.1"/>
<path d="M104.125 146.123C102.805 143.675 100.012 142.565 97.9074 143.694C95.7648 144.842 95.1143 147.75 96.4343 150.237L103.13 162.805C104.45 165.254 107.243 166.363 109.328 165.254H109.366C111.471 164.106 112.14 161.179 110.82 158.711L104.125 146.143V146.123Z" fill="white" fill-opacity="0.1"/>
<path d="M115.507 139.217C114.015 136.864 111.146 135.965 109.118 137.228C107.071 138.529 106.612 141.475 108.104 143.847L115.66 155.918C117.133 158.271 120.003 159.19 122.012 157.927L122.05 157.889C124.078 156.626 124.537 153.661 123.045 151.289L115.507 139.217Z" fill="white" fill-opacity="0.1"/>
<path d="M126.373 131.527C124.728 129.27 121.801 128.581 119.869 129.977C117.918 131.412 117.688 134.397 119.333 136.654L127.713 148.17C129.358 150.428 132.266 151.136 134.179 149.739L134.217 149.701C136.149 148.304 136.398 145.301 134.753 143.043L126.373 131.527Z" fill="white" fill-opacity="0.1"/>
<path d="M136.685 123.11C134.886 120.967 131.921 120.489 130.085 122.019C128.229 123.588 128.21 126.572 130.008 128.715L139.172 139.619C140.97 141.743 143.935 142.259 145.733 140.729V140.69C147.589 139.16 147.627 136.157 145.829 134.014L136.666 123.11H136.685Z" fill="white" fill-opacity="0.1"/>
<path d="M146.365 113.984C144.433 111.976 141.429 111.708 139.707 113.353C137.966 115.056 138.158 118.04 140.09 120.049L149.98 130.283C151.913 132.292 154.916 132.579 156.599 130.934V130.896C158.359 129.231 158.168 126.247 156.236 124.238L146.346 114.003L146.365 113.984Z" fill="white" fill-opacity="0.1"/>
<path d="M165.973 113.755L155.394 104.228C153.328 102.372 150.306 102.296 148.718 104.056C147.111 105.873 147.493 108.838 149.579 110.713L160.158 120.221C162.243 122.076 165.227 122.172 166.815 120.412V120.374C168.441 118.595 168.059 115.629 165.973 113.755Z" fill="white" fill-opacity="0.1"/>
<path d="M174.946 102.602L163.716 93.84C161.516 92.1183 158.513 92.2713 157.039 94.1461C155.547 96.0591 156.14 98.9861 158.359 100.708L169.589 109.47C171.789 111.191 174.793 111.057 176.246 109.202V109.164C177.739 107.289 177.146 104.343 174.946 102.621V102.602Z" fill="white" fill-opacity="0.1"/>
<path d="M183.114 90.8557L171.292 82.8974C168.977 81.3479 165.993 81.6922 164.653 83.6626C163.314 85.6713 164.099 88.56 166.433 90.1287L178.236 98.0678C180.551 99.6365 183.535 99.2922 184.855 97.3409V97.3026C186.213 95.3322 185.429 92.4244 183.114 90.8748V90.8557Z" fill="white" fill-opacity="0.1"/>
<path d="M190.441 78.593L178.102 71.4765C175.692 70.08 172.726 70.6347 171.54 72.7008C170.335 74.8052 171.33 77.6365 173.759 79.033L186.099 86.1495C188.509 87.546 191.474 87.0104 192.641 84.9634V84.9252C193.846 82.8591 192.871 80.0277 190.441 78.6312V78.593Z" fill="white" fill-opacity="0.1"/>
<path d="M196.907 65.833L184.09 59.5774C181.584 58.3531 178.676 59.1183 177.624 61.2609C176.572 63.4418 177.758 66.1965 180.283 67.4209L193.081 73.6574C195.587 74.8817 198.495 74.1357 199.528 72.0122V71.9739C200.58 69.8313 199.394 67.0765 196.888 65.8522L196.907 65.833Z" fill="white" fill-opacity="0.1"/>
<path d="M202.436 52.6521L189.217 47.3147C186.634 46.2625 183.784 47.2382 182.885 49.4382C181.986 51.6956 183.363 54.3356 185.965 55.3878L199.184 60.706C201.766 61.7582 204.617 60.8017 205.497 58.6208V58.5826C206.396 56.3634 205.038 53.7043 202.436 52.6521Z" fill="white" fill-opacity="0.1"/>
<path d="M207.046 39.1078L193.502 34.7079C190.843 33.847 188.069 34.9948 187.323 37.2713C186.577 39.5861 188.146 42.1305 190.805 42.9913L204.349 47.3913C207.008 48.2522 209.782 47.1044 210.509 44.8661V44.8279C211.255 42.5513 209.706 39.9879 207.046 39.127V39.1078Z" fill="white" fill-opacity="0.1"/>
<path d="M210.719 25.2957L196.888 21.8522C194.172 21.1826 191.493 22.5217 190.9 24.8365C190.326 27.1895 192.067 29.6382 194.784 30.3078L208.596 33.7513C211.293 34.4208 213.991 33.1009 214.565 30.8052V30.767C215.158 28.4522 213.417 26.0034 210.7 25.3339L210.719 25.2957Z" fill="white" fill-opacity="0.1"/>
<path d="M213.398 11.2539L199.356 8.78609C196.601 8.2887 194.019 9.83827 193.598 12.1722C193.177 14.5635 195.09 16.8783 197.845 17.3565L211.867 19.8244C214.622 20.3026 217.205 18.7913 217.606 16.4574V16.4191C218.027 14.0661 216.133 11.7513 213.379 11.2539H213.398Z" fill="white" fill-opacity="0.1"/>
<path d="M215.1 -2.96001L200.925 -4.45218C198.151 -4.73914 195.683 -3.03654 195.415 -0.664368C195.186 1.74606 197.233 3.92694 200.026 4.2139L214.182 5.68695C216.956 5.97391 219.443 4.29042 219.673 1.93738V1.89912C219.921 -0.473053 217.874 -2.65392 215.081 -2.94087L215.1 -2.96001Z" fill="white" fill-opacity="0.1"/>
<path d="M215.789 -17.2313L201.556 -17.7287C198.763 -17.8244 196.429 -15.9496 196.333 -13.5583C196.257 -11.1287 198.457 -9.10086 201.269 -9.02434L215.502 -8.54608C218.295 -8.45042 220.648 -10.3061 220.725 -12.6783V-12.7165C220.801 -15.1078 218.601 -17.1356 215.808 -17.2313H215.789Z" fill="white" fill-opacity="0.1"/>
<path d="M215.502 -31.5217L201.25 -31.0243C198.457 -30.9287 196.257 -28.9008 196.333 -26.5095C196.429 -24.08 198.763 -22.2052 201.575 -22.32L215.808 -22.8174C218.601 -22.913 220.82 -24.9409 220.725 -27.2939V-27.3322C220.629 -29.7235 218.295 -31.5982 215.502 -31.5026V-31.5217Z" fill="white" fill-opacity="0.1"/>
<path d="M214.201 -45.7739L200.026 -44.2817C197.252 -43.9948 195.186 -41.7948 195.434 -39.4417C195.702 -37.0313 198.17 -35.3287 200.944 -35.6348L215.1 -37.127C217.874 -37.4139 219.94 -39.5948 219.692 -41.9478V-41.9861C219.424 -44.3583 216.956 -46.08 214.182 -45.7739H214.201Z" fill="white" fill-opacity="0.1"/>
<path d="M211.925 -59.873L197.883 -57.4052C195.128 -56.9269 193.234 -54.593 193.636 -52.24C194.057 -49.8487 196.639 -48.3183 199.394 -48.8348L213.417 -51.3217C216.172 -51.8 218.085 -54.1148 217.664 -56.4487V-56.4869C217.243 -58.84 214.66 -60.3704 211.906 -59.8922L211.925 -59.873Z" fill="white" fill-opacity="0.1"/>
<path d="M208.653 -73.8L194.822 -70.3566C192.106 -69.687 190.365 -67.2383 190.939 -64.9235C191.532 -62.5704 194.21 -61.2313 196.926 -61.92L210.739 -65.3826C213.436 -66.0522 215.196 -68.5009 214.622 -70.7965V-70.8348C214.029 -73.1496 211.351 -74.5079 208.634 -73.8383L208.653 -73.8Z" fill="white" fill-opacity="0.1"/>
<path d="M190.862 -83.0591C188.203 -82.1983 186.634 -79.6348 187.38 -77.3583C188.146 -75.0626 190.9 -73.8956 193.559 -74.7757L207.104 -79.1757C209.763 -80.0365 211.332 -82.6 210.605 -84.8383V-84.8765C209.839 -87.153 207.085 -88.3009 204.426 -87.44L190.881 -83.04L190.862 -83.0591Z" fill="white" fill-opacity="0.1"/>
<path d="M186.041 -95.4556C183.459 -94.4035 182.081 -91.7443 182.961 -89.5252C183.879 -87.2869 186.711 -86.3113 189.313 -87.3826L202.513 -92.72C205.095 -93.7722 206.492 -96.4313 205.612 -98.6122V-98.6504C204.693 -100.87 201.843 -101.826 199.26 -100.793L186.041 -95.4556Z" fill="white" fill-opacity="0.1"/>
<path d="M180.36 -107.489C177.853 -106.264 176.648 -103.51 177.7 -101.367C178.772 -99.1861 181.66 -98.44 184.186 -99.6644L196.984 -105.92C199.49 -107.144 200.695 -109.899 199.662 -112.023L199.624 -112.061C198.591 -114.203 195.683 -114.969 193.158 -113.744L180.36 -107.508V-107.489Z" fill="white" fill-opacity="0.1"/>
<path d="M171.617 -112.788C172.841 -110.683 175.787 -110.148 178.198 -111.544L190.518 -118.661C192.928 -120.057 193.942 -122.889 192.756 -124.936L192.718 -124.974C191.532 -127.04 188.586 -127.614 186.156 -126.217L173.817 -119.101C171.407 -117.704 170.393 -114.873 171.598 -112.807L171.617 -112.788Z" fill="white" fill-opacity="0.1"/>
<path d="M164.768 -123.769C166.127 -121.76 169.111 -121.416 171.426 -122.984L183.229 -130.943C185.544 -132.492 186.367 -135.4 185.027 -137.351L184.989 -137.39C183.65 -139.379 180.685 -139.723 178.351 -138.155L166.547 -130.197C164.233 -128.647 163.448 -125.739 164.768 -123.769Z" fill="white" fill-opacity="0.1"/>
<path d="M157.154 -134.252C158.646 -132.339 161.65 -132.205 163.85 -133.946L175.06 -142.727C177.26 -144.449 177.872 -147.376 176.399 -149.25H176.361C174.888 -151.163 171.904 -151.297 169.685 -149.595L158.455 -140.833C156.255 -139.111 155.662 -136.165 157.135 -134.29L157.154 -134.252Z" fill="white" fill-opacity="0.1"/>
<path d="M148.833 -144.162C150.459 -142.363 153.462 -142.44 155.528 -144.315L166.107 -153.842C168.173 -155.697 168.575 -158.682 166.987 -160.442H166.949C165.361 -162.24 162.358 -162.183 160.273 -160.308L149.693 -150.781C147.608 -148.906 147.226 -145.941 148.833 -144.162Z" fill="white" fill-opacity="0.1"/>
<path d="M139.841 -153.478C141.582 -151.795 144.566 -152.082 146.518 -154.09L156.408 -164.344C158.34 -166.353 158.532 -169.357 156.829 -170.983H156.791C155.069 -172.666 152.085 -172.398 150.133 -170.39L140.243 -160.136C138.311 -158.127 138.12 -155.123 139.841 -153.478Z" fill="white" fill-opacity="0.1"/>
<path d="M130.219 -162.144C132.074 -160.595 135.04 -161.073 136.838 -163.235L145.982 -174.139C147.78 -176.282 147.761 -179.285 145.944 -180.797H145.906C144.088 -182.346 141.123 -181.868 139.325 -179.725L130.161 -168.821C128.363 -166.678 128.401 -163.675 130.219 -162.144Z" fill="white" fill-opacity="0.1"/>
<path d="M120.003 -170.122C121.973 -168.706 124.881 -169.395 126.526 -171.671L134.886 -183.188C136.532 -185.445 136.302 -188.43 134.389 -189.826H134.351C132.419 -191.242 129.492 -190.553 127.846 -188.296L119.486 -176.779C117.841 -174.522 118.09 -171.518 120.022 -170.122H120.003Z" fill="white" fill-opacity="0.1"/>
<path d="M109.271 -177.372C111.337 -176.09 114.187 -176.99 115.68 -179.362L123.217 -191.433C124.69 -193.805 124.25 -196.77 122.26 -198.014H122.222C120.194 -199.296 117.325 -198.397 115.852 -196.043L108.295 -183.972C106.822 -181.6 107.262 -178.635 109.29 -177.372H109.271Z" fill="white" fill-opacity="0.1"/>
<path d="M98.0604 -183.857C100.222 -182.729 102.996 -183.819 104.297 -186.287L110.973 -198.856C112.274 -201.323 111.643 -204.25 109.539 -205.36H109.5C107.396 -206.489 104.603 -205.398 103.283 -202.93L96.6065 -190.362C95.2865 -187.894 95.9561 -184.967 98.0604 -183.838V-183.857Z" fill="white" fill-opacity="0.1"/>
<path d="M86.4099 -189.539C88.6291 -188.563 91.3265 -189.845 92.4743 -192.409L98.2708 -205.417C99.3995 -207.962 98.5578 -210.85 96.396 -211.807H96.3578C94.1769 -212.783 91.4604 -211.501 90.3317 -208.957L84.5352 -195.948C83.3874 -193.403 84.2673 -190.515 86.4482 -189.539H86.4099Z" fill="white" fill-opacity="0.1"/>
<path d="M74.4152 -194.379C76.6917 -193.557 79.3126 -195.03 80.2499 -197.65L85.1282 -211.042C86.0847 -213.663 85.0325 -216.475 82.8134 -217.278H82.7751C80.5178 -218.101 77.916 -216.628 76.9595 -214.007L72.1004 -200.635C71.1439 -198.014 72.2151 -195.202 74.4534 -194.379H74.4152Z" fill="white" fill-opacity="0.1"/>
<path d="M62.0952 -198.397C64.4291 -197.746 66.9352 -199.372 67.7004 -202.07L71.6221 -215.748C72.3873 -218.426 71.1439 -221.162 68.8673 -221.812H68.8291C66.5334 -222.463 64.0273 -220.837 63.2621 -218.139L59.3404 -204.461C58.5752 -201.783 59.8186 -199.047 62.1143 -198.377L62.0952 -198.397Z" fill="white" fill-opacity="0.1"/>
<path d="M49.5265 -201.534C51.8987 -201.037 54.29 -202.854 54.8447 -205.59L57.81 -219.517C58.3839 -222.233 56.9682 -224.892 54.6534 -225.37H54.6152C52.2813 -225.868 49.89 -224.05 49.2969 -221.315L46.3508 -207.388C45.7578 -204.652 47.2117 -202.031 49.5456 -201.515L49.5265 -201.534Z" fill="white" fill-opacity="0.1"/>
<path d="M36.7665 -203.791C39.1769 -203.466 41.4152 -205.437 41.7978 -208.21L43.7682 -222.31C44.1508 -225.064 42.5439 -227.609 40.1908 -227.934H40.1526C37.7804 -228.259 35.523 -226.289 35.1404 -223.515L33.1508 -209.416C32.7682 -206.661 34.3943 -204.117 36.7473 -203.791H36.7665Z" fill="white" fill-opacity="0.1"/>
<path d="M23.8917 -205.15C26.3212 -204.997 28.4256 -207.12 28.5978 -209.913L29.5925 -224.127C29.7838 -226.901 28.0047 -229.33 25.6325 -229.483H25.5943C23.203 -229.637 21.0986 -227.513 20.9073 -224.72L19.9126 -210.525C19.7213 -207.732 21.5195 -205.322 23.8917 -205.169V-205.15Z" fill="white" fill-opacity="0.1"/>
<path d="M35.083 -192.715C19.1091 -194.934 2.52298 -194.934 -13.4509 -192.715C-15.6509 -192.409 -17.1814 -190.381 -16.8753 -188.181C-16.5692 -185.981 -14.5414 -184.45 -12.3414 -184.757C2.88646 -186.88 18.7456 -186.88 33.9734 -184.757C34.1647 -184.737 34.356 -184.718 34.5282 -184.718C36.4986 -184.718 38.2204 -186.172 38.5073 -188.181C38.8134 -190.381 37.283 -192.409 35.083 -192.715Z" fill="white" fill-opacity="0.1"/>
<path d="M-54.5048 -181.696C-69.4457 -175.631 -83.8127 -167.348 -96.5344 -157.438C-98.2753 -156.08 -98.6005 -153.555 -97.2231 -151.795C-95.8648 -150.054 -93.3396 -149.729 -91.5796 -151.106C-79.4509 -160.557 -65.7344 -168.477 -51.4822 -174.254C-51.3101 -174.33 -51.1379 -174.407 -50.9848 -174.503C-49.2822 -175.497 -48.517 -177.602 -49.2822 -179.496C-50.124 -181.543 -52.4579 -182.537 -54.524 -181.715L-54.5048 -181.696Z" fill="white" fill-opacity="0.1"/>
<path d="M-120.945 -128.073C-122.686 -129.431 -125.23 -129.125 -126.588 -127.365C-136.498 -114.663 -144.781 -100.296 -150.846 -85.3548C-151.687 -83.3078 -150.693 -80.9548 -148.627 -80.1322C-146.56 -79.2905 -144.227 -80.2852 -143.385 -82.3513C-137.607 -96.6035 -129.687 -110.32 -120.237 -122.449C-120.122 -122.602 -120.027 -122.755 -119.931 -122.908C-118.955 -124.61 -119.338 -126.83 -120.945 -128.073Z" fill="white" fill-opacity="0.1"/>
<path d="M-161.846 -44.32C-164.065 -28.3652 -164.065 -11.7791 -161.846 4.19478C-161.54 6.39478 -159.512 7.92522 -157.312 7.61913C-155.112 7.31303 -153.581 5.2852 -153.887 3.08521C-156.011 -12.1426 -156.011 -27.9826 -153.887 -43.2104C-153.868 -43.4017 -153.849 -43.593 -153.849 -43.7652C-153.849 -45.7357 -155.303 -47.4574 -157.312 -47.7444C-159.512 -48.0505 -161.54 -46.52 -161.846 -44.32Z" fill="white" fill-opacity="0.1"/>
<path d="M-126.531 87.2209C-125.173 88.9618 -122.647 89.287 -120.887 87.9096C-119.127 86.5513 -118.821 84.0261 -120.18 82.2661C-129.63 70.1374 -137.569 56.44 -143.347 42.1879C-143.423 42.0157 -143.5 41.8435 -143.595 41.6713C-144.59 39.9687 -146.694 39.2035 -148.588 39.9687C-150.635 40.8105 -151.63 43.1443 -150.788 45.2104C-144.724 60.1513 -136.421 74.4991 -126.512 87.2018L-126.531 87.2209Z" fill="white" fill-opacity="0.1"/>
<path d="M-96.4579 117.256C-83.7362 127.146 -69.3692 135.449 -54.4283 141.494C-52.3814 142.336 -50.0283 141.341 -49.2057 139.275C-48.364 137.209 -49.3588 134.875 -51.4249 134.033C-65.677 128.256 -79.4127 120.355 -91.5414 110.904C-91.6944 110.79 -91.8475 110.675 -92.0005 110.598C-93.7031 109.603 -95.9222 110.005 -97.1849 111.612C-98.5431 113.372 -98.237 115.878 -96.477 117.256H-96.4579Z" fill="white" fill-opacity="0.1"/>
<path d="M-13.3553 152.494C2.61864 154.713 19.2047 154.713 35.1786 152.494C37.3786 152.188 38.9091 150.16 38.603 147.96C38.2969 145.76 36.2691 144.23 34.0691 144.536C18.8412 146.659 2.98212 146.659 -12.2457 144.536C-12.437 144.517 -12.6283 144.497 -12.8005 144.497C-14.7709 144.497 -16.4927 145.951 -16.7796 147.96C-17.0857 150.16 -15.5553 152.188 -13.3553 152.494Z" fill="white" fill-opacity="0.1"/>
<path d="M76.2517 141.456C91.1926 135.391 105.56 127.108 118.281 117.198C120.041 115.84 120.347 113.315 118.989 111.574C117.612 109.814 115.106 109.508 113.346 110.866C101.217 120.316 87.5004 128.237 73.2483 134.033C73.0761 134.11 72.9039 134.186 72.7509 134.282C71.0482 135.277 70.283 137.4 71.0482 139.275C71.8708 141.341 74.2239 142.316 76.29 141.494L76.2517 141.456Z" fill="white" fill-opacity="0.1"/>
<path d="M142.692 87.8521C144.433 89.2295 146.977 88.9044 148.335 87.1443C158.245 74.4417 166.528 60.0747 172.593 45.1339C173.434 43.0869 172.44 40.7339 170.373 39.9113C168.307 39.0695 165.973 40.0643 165.132 42.1304C159.354 56.3826 151.434 70.0991 141.984 82.2278C141.869 82.3809 141.754 82.5339 141.659 82.687C140.664 84.3896 141.066 86.6087 142.673 87.8521H142.692Z" fill="white" fill-opacity="0.1"/>
<path d="M183.573 4.08C185.793 -11.8748 185.793 -28.4609 183.573 -44.4156C183.267 -46.6156 181.24 -48.1461 179.04 -47.84C176.84 -47.5339 175.309 -45.5061 175.615 -43.3061C177.739 -28.0783 177.739 -12.2383 175.615 2.98956C175.596 3.18086 175.577 3.37218 175.577 3.54436C175.577 5.51479 177.031 7.23651 179.04 7.52347C181.24 7.82956 183.267 6.29913 183.573 4.09914V4.08Z" fill="white" fill-opacity="0.1"/>
<path d="M148.259 -127.461C146.9 -129.221 144.375 -129.527 142.615 -128.169C140.855 -126.81 140.549 -124.285 141.907 -122.525C151.358 -110.397 159.297 -96.6991 165.074 -82.447C165.151 -82.2748 165.227 -82.1026 165.323 -81.9496C166.318 -80.247 168.441 -79.4818 170.316 -80.247C172.363 -81.0696 173.358 -83.4226 172.516 -85.4887C166.452 -100.41 158.149 -114.777 148.24 -127.48L148.259 -127.461Z" fill="white" fill-opacity="0.1"/>
<path d="M118.186 -157.496C105.464 -167.405 91.0969 -175.689 76.1561 -181.734C74.09 -182.576 71.756 -181.581 70.9334 -179.515C70.0917 -177.449 71.0865 -175.115 73.1335 -174.273C87.4048 -168.496 101.121 -160.595 113.25 -151.144C113.403 -151.03 113.556 -150.915 113.709 -150.838C115.431 -149.863 117.65 -150.245 118.893 -151.852C120.252 -153.593 119.946 -156.118 118.186 -157.496Z" fill="white" fill-opacity="0.1"/>
<path d="M-37.1918 -183.685C-36.6179 -181.543 -34.4179 -180.28 -32.2753 -180.854C-30.1327 -181.428 -28.8701 -183.628 -29.444 -185.77C-30.0179 -187.913 -32.2179 -189.176 -34.3605 -188.602C-36.5031 -188.028 -37.7848 -185.828 -37.1918 -183.685Z" fill="white" fill-opacity="0.1"/>
<path d="M-112.585 -143.435C-114.154 -141.866 -114.154 -139.322 -112.585 -137.753C-111.016 -136.184 -108.472 -136.184 -106.903 -137.753C-105.334 -139.322 -105.334 -141.866 -106.903 -143.435C-108.472 -145.003 -111.016 -145.003 -112.585 -143.435Z" fill="white" fill-opacity="0.1"/>
<path d="M-157.752 -65.2104C-158.326 -63.0678 -157.063 -60.8678 -154.901 -60.2939C-152.759 -59.72 -150.559 -60.9826 -149.985 -63.1252C-149.411 -65.2678 -150.674 -67.4678 -152.835 -68.0417C-154.978 -68.6157 -157.178 -67.3339 -157.752 -65.1913V-65.2104Z" fill="white" fill-opacity="0.1"/>
<path d="M-152.797 27.9165C-150.654 27.3426 -149.373 25.1426 -149.947 23C-150.521 20.8574 -152.721 19.5757 -154.863 20.1687C-157.006 20.7426 -158.287 22.9426 -157.694 25.0852C-157.121 27.2278 -154.92 28.5096 -152.778 27.9356L-152.797 27.9165Z" fill="white" fill-opacity="0.1"/>
<path d="M-106.846 103.271C-105.277 101.703 -105.277 99.1582 -106.846 97.5895C-108.414 96.0208 -110.959 96.0208 -112.527 97.5895C-114.096 99.1582 -114.096 101.703 -112.527 103.271C-110.959 104.84 -108.414 104.84 -106.846 103.271Z" fill="white" fill-opacity="0.1"/>
<path d="M-34.2648 148.4C-32.1222 148.974 -29.9222 147.711 -29.3483 145.569C-28.7744 143.426 -30.037 141.226 -32.1988 140.652C-34.3414 140.078 -36.5414 141.341 -37.1153 143.503C-37.6892 145.645 -36.4266 147.845 -34.2648 148.419V148.4Z" fill="white" fill-opacity="0.1"/>
<path d="M58.9386 143.445C58.3647 141.303 56.1647 140.04 54.0221 140.614C51.8795 141.188 50.5978 143.388 51.1908 145.53C51.7647 147.673 53.9647 148.936 56.1073 148.362C58.2499 147.788 59.5125 145.588 58.9386 143.445Z" fill="white" fill-opacity="0.1"/>
<path d="M134.332 103.195C135.9 101.626 135.9 99.0817 134.332 97.513C132.763 95.9443 130.219 95.9443 128.65 97.513C127.081 99.0817 127.081 101.626 128.65 103.195C130.219 104.763 132.763 104.763 134.332 103.195Z" fill="white" fill-opacity="0.1"/>
<path d="M179.48 24.9895C180.053 22.8469 178.772 20.6469 176.648 20.073C174.506 19.4991 172.286 20.7809 171.713 22.9043C171.139 25.047 172.401 27.2469 174.563 27.8208C176.706 28.3947 178.906 27.1322 179.48 24.9704V24.9895Z" fill="white" fill-opacity="0.1"/>
<path d="M171.693 -63.24C172.267 -61.0974 174.467 -59.8156 176.61 -60.4087C178.753 -60.9826 180.034 -63.1826 179.441 -65.3252C178.867 -67.4678 176.667 -68.7304 174.525 -68.1565C172.382 -67.5826 171.1 -65.3826 171.674 -63.24H171.693Z" fill="white" fill-opacity="0.1"/>
<path d="M128.573 -143.511C127.005 -141.943 127.005 -139.398 128.573 -137.83C130.142 -136.261 132.686 -136.261 134.255 -137.83C135.824 -139.398 135.824 -141.943 134.255 -143.511C132.686 -145.08 130.142 -145.08 128.573 -143.511Z" fill="white" fill-opacity="0.1"/>
<path d="M55.9925 -188.64C53.8499 -189.214 51.6499 -187.932 51.076 -185.79C50.5021 -183.647 51.7838 -181.447 53.9265 -180.873C56.0691 -180.299 58.2691 -181.562 58.843 -183.723C59.4169 -185.866 58.1351 -188.066 56.0117 -188.64H55.9925Z" fill="white" fill-opacity="0.1"/>
<path d="M-17.9657 -172.283C-18.1762 -172.207 -18.5397 -172.054 -18.9797 -171.767C-21.9258 -169.663 -25.1588 -168.132 -28.6597 -167.195C-32.1605 -166.257 -35.7379 -165.97 -39.3536 -166.315C-39.8701 -166.353 -40.2527 -166.315 -40.4823 -166.257C-40.5205 -166.257 -40.5397 -166.257 -40.5397 -166.257C-42.2997 -165.779 -43.3518 -163.962 -42.8736 -162.221C-42.6631 -161.398 -42.1466 -160.767 -41.4962 -160.327L-28.851 -153.038C-26.1918 -151.508 -22.8057 -152.407 -21.2753 -155.066L-14.1397 -167.424C-13.6805 -168.17 -13.5083 -169.108 -13.757 -170.026C-14.2353 -171.786 -16.0336 -172.838 -17.8127 -172.36C-17.8127 -172.36 -17.8701 -172.36 -17.9657 -172.322V-172.283Z" fill="white" fill-opacity="0.1"/>
<path d="M-32.3518 -122.984C-31.8736 -121.224 -30.0562 -120.172 -28.2962 -120.65C-28.2962 -120.65 -28.2388 -120.65 -28.124 -120.689C-27.9136 -120.765 -27.5501 -120.918 -27.1101 -121.224C-24.164 -123.329 -20.931 -124.859 -17.4301 -125.797C-13.9292 -126.734 -10.3518 -127.021 -6.73618 -126.677C-6.20053 -126.638 -5.83707 -126.677 -5.6075 -126.734C-5.56924 -126.734 -5.55009 -126.734 -5.55009 -126.734C-3.77097 -127.212 -2.73793 -129.03 -3.21619 -130.79C-3.42662 -131.612 -3.94313 -132.243 -4.59357 -132.664L-17.2579 -139.972C-19.9171 -141.503 -23.3031 -140.603 -24.8336 -137.944L-31.9692 -125.567C-32.4284 -124.821 -32.6005 -123.903 -32.3518 -122.965V-122.984Z" fill="white" fill-opacity="0.1"/>
<path d="M-46.5849 -155.793C-48.3448 -155.315 -49.397 -153.497 -48.9188 -151.737C-48.9188 -151.737 -48.9187 -151.68 -48.8805 -151.565C-48.804 -151.355 -48.6509 -150.991 -48.364 -150.551C-46.2596 -147.605 -44.7292 -144.372 -43.7918 -140.871C-42.8544 -137.37 -42.5675 -133.793 -42.9118 -130.197C-42.9501 -129.661 -42.9118 -129.297 -42.8544 -129.068C-42.8544 -129.03 -42.8544 -129.01 -42.8544 -129.01C-42.3761 -127.231 -40.5588 -126.198 -38.7988 -126.677C-37.9762 -126.887 -37.3448 -127.403 -36.9048 -128.054L-29.597 -140.699C-28.0666 -143.358 -28.9848 -146.744 -31.6248 -148.275L-44.0022 -155.41C-44.7483 -155.87 -45.6857 -156.042 -46.604 -155.793H-46.5849Z" fill="white" fill-opacity="0.1"/>
<path d="M-3.27356 -163.904V-163.962C-3.75182 -165.722 -5.5692 -166.774 -7.32919 -166.296C-8.15179 -166.085 -8.78313 -165.569 -9.20399 -164.918L-16.5118 -152.273C-18.0423 -149.614 -17.124 -146.228 -14.484 -144.697L-2.1066 -137.562C-1.3605 -137.103 -0.423111 -136.93 0.495148 -137.179C2.25514 -137.657 3.30731 -139.475 2.82906 -141.235C2.82906 -141.235 2.82904 -141.292 2.79079 -141.407C2.71426 -141.617 2.56123 -141.981 2.27428 -142.421C0.169922 -145.367 -1.3605 -148.6 -2.2979 -152.082C-3.23529 -155.583 -3.52225 -159.16 -3.1779 -162.757C-3.13965 -163.292 -3.1779 -163.656 -3.23529 -163.885L-3.27356 -163.904Z" fill="white" fill-opacity="0.1"/>
<path d="M-20.204 -143.645C-18.6353 -145.214 -18.6353 -147.758 -20.204 -149.327C-21.7727 -150.896 -24.317 -150.896 -25.8857 -149.327C-27.4544 -147.758 -27.4544 -145.214 -25.8857 -143.645C-24.317 -142.077 -21.7727 -142.077 -20.204 -143.645Z" fill="white" fill-opacity="0.1"/>
<path d="M-106.712 -121.014L-106.75 -120.976C-108.051 -119.675 -108.051 -117.59 -106.75 -116.308C-106.157 -115.715 -105.392 -115.409 -104.607 -115.37H-89.9918C-86.9309 -115.37 -84.444 -117.857 -84.444 -120.918V-135.19C-84.4248 -136.07 -84.75 -136.969 -85.4196 -137.638C-86.7013 -138.92 -88.8057 -138.92 -90.1066 -137.638C-90.1066 -137.638 -90.1448 -137.6 -90.2214 -137.523C-90.3744 -137.351 -90.604 -137.045 -90.8527 -136.567C-92.364 -133.277 -94.3918 -130.33 -96.9361 -127.767C-99.4996 -125.203 -102.446 -123.176 -105.755 -121.664C-106.234 -121.435 -106.54 -121.205 -106.712 -121.052V-121.014Z" fill="white" fill-opacity="0.1"/>
<path d="M-78.0353 -87.593C-76.7535 -86.3113 -74.6492 -86.3113 -73.3483 -87.593C-73.3483 -87.593 -73.3101 -87.6313 -73.2335 -87.7078C-73.0805 -87.88 -72.8509 -88.1861 -72.6214 -88.6835C-71.1101 -91.9739 -69.0822 -94.92 -66.5188 -97.4835C-63.9553 -100.047 -61.0092 -102.075 -57.6996 -103.586C-57.2214 -103.816 -56.9153 -104.045 -56.7431 -104.198C-56.7048 -104.236 -56.7048 -104.237 -56.7048 -104.237C-55.404 -105.537 -55.404 -107.623 -56.7048 -108.923C-57.2979 -109.516 -58.0631 -109.823 -58.8474 -109.861H-73.4631C-76.524 -109.861 -79.0109 -107.374 -79.0109 -104.313V-90.0226C-79.0301 -89.1426 -78.724 -88.2626 -78.0353 -87.5739V-87.593Z" fill="white" fill-opacity="0.1"/>
<path d="M-90.757 -88.5878C-90.5274 -88.1096 -90.2979 -87.8226 -90.1448 -87.6313L-90.1066 -87.593C-88.8057 -86.2922 -86.7205 -86.2922 -85.4196 -87.593C-84.8266 -88.1861 -84.5205 -88.9513 -84.4822 -89.7357V-104.332C-84.4822 -107.393 -86.9692 -109.88 -90.0301 -109.88H-104.32C-105.2 -109.899 -106.1 -109.593 -106.769 -108.923C-108.07 -107.642 -108.051 -105.537 -106.769 -104.237C-106.769 -104.237 -106.731 -104.198 -106.654 -104.122C-106.482 -103.969 -106.176 -103.739 -105.698 -103.51C-102.407 -101.998 -99.4614 -99.9704 -96.8979 -97.4261C-94.3344 -94.8626 -92.3066 -91.9165 -90.7953 -88.6261L-90.757 -88.5878Z" fill="white" fill-opacity="0.1"/>
<path d="M-72.6979 -136.624C-72.9275 -137.103 -73.157 -137.409 -73.3101 -137.562C-73.3483 -137.581 -73.3483 -137.6 -73.3483 -137.6C-74.6492 -138.901 -76.7344 -138.901 -78.0353 -137.6C-78.6283 -137.007 -78.9153 -136.242 -78.9727 -135.477V-120.88C-78.9727 -117.819 -76.4857 -115.332 -73.4249 -115.332H-59.1344C-58.2544 -115.313 -57.3553 -115.619 -56.6857 -116.289C-55.404 -117.57 -55.404 -119.675 -56.6857 -120.976C-56.6857 -120.976 -56.724 -121.014 -56.8005 -121.09C-56.9727 -121.243 -57.2788 -121.473 -57.757 -121.703C-61.0666 -123.214 -63.9936 -125.242 -66.557 -127.786C-69.1205 -130.35 -71.1483 -133.296 -72.6596 -136.605L-72.6979 -136.624Z" fill="white" fill-opacity="0.1"/>
<path d="M-85.6109 -113.649C-86.1848 -111.506 -84.9031 -109.306 -82.7605 -108.732C-80.6179 -108.158 -78.4179 -109.44 -77.844 -111.583C-77.2701 -113.725 -78.5327 -115.925 -80.6753 -116.499C-82.8179 -117.073 -85.0179 -115.791 -85.5918 -113.649H-85.6109Z" fill="white" fill-opacity="0.1"/>
<path d="M-140.936 -49.753C-141.223 -49.313 -141.376 -48.9687 -141.453 -48.7582C-141.453 -48.72 -141.453 -48.7009 -141.453 -48.7009C-141.931 -46.9409 -140.879 -45.1234 -139.119 -44.6452C-138.296 -44.4156 -137.493 -44.5495 -136.785 -44.8939L-124.14 -52.2017C-121.481 -53.7321 -120.581 -57.1182 -122.112 -59.7774L-129.247 -72.1356C-129.668 -72.9008 -130.395 -73.513 -131.314 -73.7617C-133.074 -74.24 -134.891 -73.1878 -135.35 -71.4087C-135.35 -71.4087 -135.35 -71.3513 -135.388 -71.2556C-135.427 -71.0261 -135.484 -70.6626 -135.446 -70.1078C-135.101 -66.5113 -135.388 -62.9339 -136.326 -59.433C-137.263 -55.9513 -138.813 -52.6991 -140.917 -49.753H-140.936Z" fill="white" fill-opacity="0.1"/>
<path d="M-109.084 -48.127L-101.929 -35.7687C-101.508 -35.0035 -100.801 -34.3913 -99.8822 -34.1426C-98.1222 -33.6644 -96.3049 -34.7165 -95.8266 -36.4765C-95.8266 -36.4765 -95.8266 -36.5339 -95.7883 -36.6487C-95.7501 -36.8783 -95.6927 -37.2609 -95.7309 -37.7965C-96.0753 -41.393 -95.7883 -44.9704 -94.8509 -48.4522C-93.9136 -51.953 -92.364 -55.1861 -90.2596 -58.1322C-89.9536 -58.5722 -89.8196 -58.9165 -89.7431 -59.1461C-89.7431 -59.1843 -89.7431 -59.2035 -89.7431 -59.2035C-89.2648 -60.9635 -90.317 -62.7809 -92.077 -63.2591C-92.8805 -63.4696 -93.7031 -63.3548 -94.3918 -63.0104L-107.056 -55.7026C-109.715 -54.1722 -110.614 -50.7861 -109.084 -48.127Z" fill="white" fill-opacity="0.1"/>
<path d="M-133.801 -40.2835C-134.585 -39.8626 -135.197 -39.1548 -135.427 -38.2365C-135.905 -36.4765 -134.853 -34.6591 -133.093 -34.1809C-133.093 -34.1809 -133.035 -34.1808 -132.921 -34.1426C-132.691 -34.1043 -132.308 -34.047 -131.773 -34.0852C-128.157 -34.4296 -124.599 -34.1426 -121.098 -33.2052C-117.597 -32.2678 -114.364 -30.7374 -111.399 -28.633C-110.959 -28.3461 -110.614 -28.193 -110.385 -28.1165C-110.347 -28.1165 -110.327 -28.1165 -110.327 -28.1165C-108.567 -27.6383 -106.75 -28.6904 -106.272 -30.4504C-106.061 -31.2539 -106.176 -32.0765 -106.54 -32.7652L-113.847 -45.4104C-115.378 -48.0696 -118.764 -48.9687 -121.423 -47.4382L-133.801 -40.3026V-40.2835Z" fill="white" fill-opacity="0.1"/>
<path d="M-120.811 -79.7687C-120.811 -79.7687 -120.868 -79.7687 -120.868 -79.7878C-122.628 -80.2661 -124.446 -79.2139 -124.924 -77.4539C-125.134 -76.6313 -125.02 -75.8278 -124.675 -75.1391L-117.367 -62.4939C-115.837 -59.8348 -112.432 -58.9356 -109.792 -60.4661L-97.4144 -67.6209C-96.6301 -68.0417 -96.037 -68.7496 -95.7883 -69.6678C-95.3101 -71.4278 -96.3622 -73.2452 -98.1222 -73.7235C-98.1222 -73.7235 -98.1796 -73.7235 -98.2944 -73.7617C-98.524 -73.8191 -98.9066 -73.8574 -99.4422 -73.8191C-103.058 -73.4748 -106.616 -73.7617 -110.117 -74.6991C-113.618 -75.6365 -116.851 -77.1861 -119.816 -79.2904C-120.256 -79.5965 -120.6 -79.7304 -120.83 -79.8069L-120.811 -79.7687Z" fill="white" fill-opacity="0.1"/>
<path d="M-114.555 -50.0591C-112.413 -50.6331 -111.15 -52.8331 -111.705 -54.9757C-112.279 -57.1183 -114.479 -58.4 -116.621 -57.8261C-118.764 -57.2522 -120.046 -55.0522 -119.472 -52.9096C-118.898 -50.767 -116.698 -49.5044 -114.555 -50.0783V-50.0591Z" fill="white" fill-opacity="0.1"/>
<path d="M-135.369 31.207V31.2644C-134.891 33.0244 -133.074 34.0765 -131.314 33.5983C-130.491 33.3878 -129.86 32.8713 -129.42 32.2209L-122.131 19.5757C-120.6 16.9165 -121.5 13.5304 -124.159 12L-136.536 4.86435C-137.282 4.40521 -138.22 4.23305 -139.138 4.48175C-140.898 4.96001 -141.95 6.75827 -141.472 8.5374L-141.434 8.69044C-141.357 8.90088 -141.223 9.26434 -140.917 9.70435C-138.813 12.6504 -137.282 15.8835 -136.326 19.3652C-135.388 22.847 -135.101 26.4435 -135.446 30.04C-135.484 30.5565 -135.446 30.9391 -135.388 31.1687L-135.369 31.207Z" fill="white" fill-opacity="0.1"/>
<path d="M-92.0579 23.0765C-90.2979 22.5983 -89.2457 20.7809 -89.724 19.0209C-89.724 19.0209 -89.724 18.9635 -89.7623 18.8487C-89.8388 18.6383 -89.9918 18.2748 -90.2979 17.8348C-92.4022 14.8887 -93.9327 11.6557 -94.8701 8.15479C-95.8075 4.65392 -96.0944 1.07654 -95.7501 -2.51999C-95.7118 -3.05563 -95.7501 -3.41911 -95.8075 -3.64868C-95.8075 -3.68694 -95.8075 -3.70607 -95.8075 -3.70607C-96.2857 -5.4852 -98.1031 -6.51825 -99.8631 -6.03999C-100.667 -5.82956 -101.317 -5.31303 -101.738 -4.6626L-109.046 7.98262C-110.576 10.6418 -109.677 14.0278 -107.018 15.5583L-94.6405 22.6939C-93.8944 23.1531 -92.957 23.3252 -92.0388 23.0765H-92.0579Z" fill="white" fill-opacity="0.1"/>
<path d="M-99.2892 33.6174C-98.7535 33.6556 -98.3901 33.6174 -98.1605 33.56C-98.1222 33.56 -98.1031 33.56 -98.1031 33.56C-96.324 33.0817 -95.2909 31.2643 -95.7501 29.5043C-95.9605 28.7009 -96.477 28.0504 -97.1275 27.6296L-109.792 20.3409C-112.451 18.8104 -115.837 19.7287 -117.367 22.3687L-124.503 34.7461C-124.962 35.4922 -125.134 36.4295 -124.886 37.3287C-124.407 39.0887 -122.609 40.1409 -120.83 39.6626C-120.83 39.6626 -120.773 39.6626 -120.677 39.6243C-120.467 39.5478 -120.103 39.3948 -119.663 39.1078C-116.717 37.0035 -113.484 35.473 -109.983 34.5356C-106.482 33.5983 -102.905 33.3113 -99.2892 33.6556V33.6174Z" fill="white" fill-opacity="0.1"/>
<path d="M-106.654 -7.13043C-106.195 -7.87653 -106.023 -8.81392 -106.272 -9.73218C-106.75 -11.4922 -108.567 -12.5443 -110.327 -12.0661C-110.327 -12.0661 -110.385 -12.0661 -110.5 -12.0278C-110.729 -11.9704 -111.074 -11.8174 -111.514 -11.5113C-114.479 -9.38783 -117.693 -7.87653 -121.194 -6.92C-124.694 -5.9826 -128.272 -5.69565 -131.887 -6.03999C-132.423 -6.07825 -132.787 -6.03999 -133.016 -5.9826C-133.054 -5.9826 -133.074 -5.9826 -133.074 -5.9826C-134.834 -5.50435 -135.886 -3.68695 -135.407 -1.92696C-135.178 -1.10435 -134.681 -0.473053 -134.03 -0.0521851L-121.385 7.25565C-118.726 8.78609 -115.34 7.88696 -113.809 5.22783L-106.674 -7.14957L-106.654 -7.13043Z" fill="white" fill-opacity="0.1"/>
<path d="M-118.42 10.9478C-119.988 12.5165 -119.988 15.0609 -118.42 16.6296C-116.851 18.1983 -114.307 18.1983 -112.738 16.6296C-111.169 15.0609 -111.169 12.5165 -112.738 10.9478C-114.307 9.37914 -116.851 9.37914 -118.42 10.9478Z" fill="white" fill-opacity="0.1"/>
<path d="M-96.8214 87.6418C-94.2579 90.2053 -92.2301 93.1514 -90.7188 96.4609C-90.4892 96.9392 -90.2596 97.2452 -90.1066 97.3983C-90.0683 97.4174 -90.0683 97.4366 -90.0683 97.4366C-88.7675 98.7374 -86.6822 98.7374 -85.3814 97.4366C-84.7883 96.8435 -84.4822 96.0783 -84.4249 95.294V80.6974C-84.4249 77.6366 -86.9118 75.1496 -89.9727 75.1496H-104.263C-105.143 75.1496 -106.042 75.4557 -106.712 76.1253C-107.994 77.407 -107.994 79.4922 -106.712 80.7931C-106.712 80.7931 -106.674 80.8314 -106.597 80.9079C-106.425 81.0609 -106.119 81.2905 -105.641 81.5201C-102.35 83.0313 -99.404 85.0592 -96.8405 87.6035L-96.8214 87.6418Z" fill="white" fill-opacity="0.1"/>
<path d="M-56.6666 68.7217C-55.3849 67.44 -55.3849 65.3357 -56.6666 64.0539C-56.6666 64.0539 -56.7049 64.0157 -56.7814 63.9391C-56.9536 63.7861 -57.2596 63.5565 -57.757 63.327C-61.0475 61.8157 -63.9936 59.807 -66.557 57.2435C-69.1205 54.68 -71.1483 51.7339 -72.6596 48.4243C-72.8892 47.9461 -73.1188 47.6591 -73.2718 47.4678C-73.3101 47.4487 -73.3101 47.4296 -73.3101 47.4296C-74.611 46.1287 -76.6962 46.1287 -77.997 47.4296C-78.5901 48.0226 -78.8962 48.7878 -78.9344 49.553V64.1687C-78.9344 67.2296 -76.4475 69.7165 -73.3866 69.6974H-59.0962C-58.2162 69.7165 -57.3362 69.4104 -56.6666 68.7409V68.7217Z" fill="white" fill-opacity="0.1"/>
<path d="M-77.9779 97.4365C-76.6962 98.7374 -74.5918 98.7182 -73.2909 97.4365C-73.2909 97.4365 -73.2527 97.3982 -73.1762 97.3217C-73.0231 97.1495 -72.7936 96.8435 -72.564 96.3652C-71.0527 93.0748 -69.044 90.1287 -66.4805 87.5652C-63.917 85.0017 -60.9709 82.9739 -57.6614 81.4626C-57.1831 81.233 -56.8962 81.0034 -56.7049 80.8504C-56.6666 80.8121 -56.6666 80.793 -56.6666 80.793C-55.3657 79.4922 -55.3657 77.407 -56.6666 76.1061C-57.2596 75.513 -58.0249 75.2069 -58.8092 75.1687H-73.4249C-76.4857 75.1687 -78.9727 77.6556 -78.9727 80.7165V94.9878C-79.0109 95.8678 -78.6857 96.7478 -78.0162 97.4365H-77.9779Z" fill="white" fill-opacity="0.1"/>
<path d="M-104.569 69.6783H-89.9535C-86.8927 69.6783 -84.4057 67.1913 -84.4057 64.1305V49.8401C-84.3866 48.9601 -84.6927 48.0609 -85.3814 47.3913C-86.6631 46.0905 -88.7674 46.1096 -90.0683 47.3913C-90.0683 47.3913 -90.1066 47.4296 -90.1831 47.5061C-90.3362 47.6783 -90.5657 47.9844 -90.7953 48.4627C-92.3066 51.7531 -94.3344 54.6992 -96.8788 57.2627C-99.4422 59.8261 -102.388 61.854 -105.698 63.3653C-106.176 63.5948 -106.482 63.8244 -106.654 63.9774C-106.693 63.9966 -106.693 64.0157 -106.693 64.0157C-107.994 65.3166 -107.974 67.4018 -106.693 68.6835C-106.1 69.2766 -105.334 69.5826 -104.55 69.6209L-104.569 69.6783Z" fill="white" fill-opacity="0.1"/>
<path d="M-82.7222 76.3166C-80.5796 76.8905 -78.3796 75.6087 -77.8057 73.4661C-77.2318 71.3235 -78.5135 69.1235 -80.6562 68.5496C-82.7988 67.9757 -84.9988 69.2383 -85.5727 71.3809C-86.1466 73.5235 -84.8649 75.7235 -82.7222 76.2974V76.3166Z" fill="white" fill-opacity="0.1"/>
<path d="M-40.4631 126.037C-40.4631 126.037 -40.4057 126.037 -40.3101 126.075C-40.0805 126.113 -39.717 126.17 -39.1622 126.132C-35.5657 125.788 -31.9883 126.075 -28.4874 126.993C-24.9866 127.93 -21.7535 129.48 -18.7883 131.565C-18.3483 131.852 -18.004 132.005 -17.7744 132.082C-17.7362 132.082 -17.717 132.082 -17.717 132.082C-15.957 132.56 -14.1396 131.508 -13.6614 129.748C-13.4318 128.925 -13.5657 128.122 -13.91 127.414L-21.2179 114.769C-22.7483 112.11 -26.1535 111.21 -28.7935 112.741L-41.1709 119.877C-41.9553 120.297 -42.5483 121.024 -42.797 121.943C-43.2753 123.703 -42.2231 125.52 -40.444 125.979L-40.4631 126.037Z" fill="white" fill-opacity="0.1"/>
<path d="M-4.78487 92.6156C-4.00052 92.1948 -3.40747 91.487 -3.15877 90.5687C-2.68051 88.8087 -3.73268 86.9913 -5.49268 86.513C-5.49268 86.513 -5.55008 86.4939 -5.66486 86.4557C-5.89442 86.4174 -6.27704 86.36 -6.81268 86.3982C-10.4092 86.7426 -13.9866 86.4556 -17.4875 85.5182C-20.9883 84.5809 -24.2214 83.0313 -27.1866 80.9269C-27.6266 80.6208 -27.9709 80.4869 -28.2005 80.4104C-28.2388 80.4104 -28.2579 80.4104 -28.2579 80.4104C-30.037 79.9322 -31.8353 80.9843 -32.3136 82.7444C-32.524 83.5478 -32.4092 84.3704 -32.0648 85.0591L-24.757 97.7043C-23.2266 100.344 -19.8405 101.263 -17.1814 99.7321L-4.80399 92.5774L-4.78487 92.6156Z" fill="white" fill-opacity="0.1"/>
<path d="M2.35078 102.085C2.63774 101.645 2.79079 101.301 2.86731 101.09C2.86731 101.052 2.86731 101.014 2.86731 101.014C3.34557 99.2539 2.29338 97.4365 0.533386 96.9583C-0.270096 96.7478 -1.0927 96.8626 -1.78139 97.2069L-14.4266 104.515C-17.0858 106.045 -17.9849 109.431 -16.4544 112.09L-9.29965 124.468C-8.87878 125.233 -8.17096 125.845 -7.2527 126.094C-5.49271 126.572 -3.67529 125.52 -3.19704 123.76C-3.19704 123.76 -3.1779 123.703 -3.15877 123.607C-3.12051 123.377 -3.06313 122.995 -3.10138 122.459C-3.44572 118.843 -3.15878 115.285 -2.22139 111.803C-1.284 108.303 0.246445 105.07 2.36992 102.104L2.35078 102.085Z" fill="white" fill-opacity="0.1"/>
<path d="M-46.5083 115.591C-45.6857 115.802 -44.8822 115.687 -44.1935 115.343L-31.5483 108.054C-28.8892 106.523 -27.9901 103.118 -29.5205 100.478L-36.6753 88.12C-37.0961 87.3548 -37.8231 86.7426 -38.7222 86.4939C-40.4822 86.0156 -42.2996 87.0678 -42.7779 88.8278C-42.7779 88.8278 -42.7779 88.8852 -42.8161 89C-42.8735 89.2295 -42.9118 89.6122 -42.8735 90.1478C-42.5292 93.7635 -42.8161 97.3217 -43.7535 100.823C-44.6909 104.323 -46.2405 107.557 -48.3448 110.503C-48.6509 110.943 -48.7849 111.287 -48.8614 111.497C-48.8614 111.536 -48.8614 111.555 -48.8614 111.574C-49.3396 113.334 -48.2875 115.151 -46.5275 115.63L-46.5083 115.591Z" fill="white" fill-opacity="0.1"/>
<path d="M-24.0301 102.41C-26.1727 102.984 -27.4544 105.184 -26.8805 107.327C-26.3066 109.47 -24.0875 110.732 -21.9449 110.158C-19.8022 109.584 -18.5396 107.384 -19.1135 105.242C-19.6875 103.099 -21.8875 101.837 -24.0301 102.41Z" fill="white" fill-opacity="0.1"/>
<path d="M39.6934 132.063C39.9038 131.986 40.2673 131.852 40.7073 131.546C43.6534 129.442 46.8864 127.911 50.3873 126.974C53.8882 126.037 57.4656 125.75 61.0812 126.094C61.5977 126.132 61.9995 126.094 62.2099 126.037C62.2482 126.037 62.2673 126.037 62.2673 126.037C64.0273 125.558 65.0795 123.741 64.6012 122C64.3908 121.177 63.8742 120.546 63.2238 120.106L50.5786 112.817C47.9195 111.287 44.5334 112.186 42.9838 114.845L35.8482 127.204C35.389 127.95 35.2169 128.887 35.4656 129.805C35.9438 131.565 37.7612 132.617 39.5212 132.139C39.5212 132.139 39.5786 132.139 39.6743 132.101L39.6934 132.063Z" fill="white" fill-opacity="0.1"/>
<path d="M53.716 85.3461C54.1751 84.6 54.3473 83.6626 54.0986 82.7444C53.6203 80.9843 51.803 79.9322 50.043 80.4104C50.043 80.4104 49.9856 80.4104 49.8708 80.4487C49.6604 80.5252 49.2969 80.6591 48.8569 80.9843C45.9108 83.0887 42.6777 84.6191 39.1769 85.5565C35.676 86.4939 32.0986 86.7809 28.5021 86.4365C27.9664 86.3982 27.603 86.4365 27.3734 86.4939C27.3351 86.4939 27.316 86.4939 27.316 86.4939C25.5369 86.9722 24.5038 88.7896 24.9821 90.5496C25.2117 91.353 25.709 92.0035 26.3595 92.4243L39.0238 99.7321C41.683 101.263 45.069 100.344 46.5995 97.7043L53.7351 85.3269L53.716 85.3461Z" fill="white" fill-opacity="0.1"/>
<path d="M68.3126 115.553C70.0726 115.075 71.1248 113.277 70.6465 111.497C70.6465 111.497 70.6465 111.44 70.6082 111.325C70.5317 111.115 70.3786 110.751 70.0917 110.311C67.9873 107.365 66.4569 104.132 65.5195 100.65C64.5822 97.1496 64.2952 93.5913 64.6395 89.9757C64.6587 89.44 64.6204 89.0765 64.5822 88.847C64.5822 88.8087 64.5822 88.7896 64.5822 88.7896C64.1039 87.0296 62.2865 85.9774 60.5265 86.4557C59.723 86.6661 59.0726 87.1826 58.6517 87.833L51.3439 100.478C49.8134 103.137 50.7317 106.523 53.3908 108.054L65.7491 115.19C66.5143 115.649 67.4325 115.821 68.3508 115.572L68.3126 115.553Z" fill="white" fill-opacity="0.1"/>
<path d="M25.0013 123.664V123.722C25.4795 125.482 27.2969 126.534 29.0569 126.056C29.8795 125.845 30.5108 125.329 30.9317 124.678L38.2395 112.033C39.77 109.374 38.8708 105.988 36.2117 104.457L23.8343 97.3218C23.0882 96.8626 22.1508 96.6905 21.2326 96.9392C19.4726 97.4174 18.4204 99.2157 18.8987 100.995C18.8987 100.995 18.8987 101.052 18.9369 101.167C19.0134 101.377 19.1473 101.741 19.4534 102.181C21.5578 105.127 23.1073 108.36 24.0447 111.861C24.9821 115.362 25.2691 118.939 24.9247 122.536C24.8865 123.071 24.9247 123.435 24.9821 123.664H25.0013Z" fill="white" fill-opacity="0.1"/>
<path d="M41.9316 103.424C40.3629 104.993 40.3629 107.537 41.9316 109.106C43.5003 110.675 46.0447 110.675 47.6134 109.106C49.1821 107.537 49.1821 104.993 47.6134 103.424C46.0447 101.856 43.5003 101.856 41.9316 103.424Z" fill="white" fill-opacity="0.1"/>
<path d="M128.44 80.7931L128.478 80.7548C129.779 79.4539 129.779 77.3687 128.478 76.087C127.885 75.494 127.12 75.1879 126.335 75.1496H111.72C108.659 75.1496 106.153 77.6366 106.172 80.6974V94.9688C106.153 95.8488 106.478 96.7479 107.147 97.4174C108.429 98.6992 110.533 98.7183 111.834 97.4174C111.834 97.4174 111.873 97.3792 111.949 97.3027C112.102 97.1305 112.332 96.8244 112.58 96.3462C114.073 93.0557 116.12 90.1096 118.664 87.5461C121.227 84.9827 124.173 82.9548 127.483 81.4435C127.961 81.214 128.267 80.9844 128.42 80.8314L128.44 80.7931Z" fill="white" fill-opacity="0.1"/>
<path d="M95.076 47.3721C95.076 47.3721 95.0378 47.4104 94.9612 47.4869C94.8082 47.6591 94.5595 47.9652 94.3299 48.4626C92.8377 51.753 90.7908 54.6991 88.2465 57.2626C85.683 59.826 82.7369 61.8539 79.4273 63.3652C78.9491 63.5947 78.643 63.8243 78.4708 63.9774C78.4517 64.0156 78.4326 64.0156 78.4326 64.0156C77.1317 65.3165 77.1317 67.4017 78.4326 68.7025C79.0256 69.2956 79.7908 69.6017 80.556 69.64H95.1717C98.2325 69.64 100.72 67.153 100.72 64.0921V49.8017C100.739 48.9217 100.413 48.0417 99.7438 47.3721C98.4621 46.0904 96.3578 46.0904 95.0569 47.3721H95.076Z" fill="white" fill-opacity="0.1"/>
<path d="M112.485 48.367C112.255 47.8887 112.026 47.6018 111.873 47.4105C111.834 47.3913 111.834 47.3722 111.834 47.3722C110.533 46.0713 108.429 46.0713 107.147 47.3722C106.554 47.9652 106.248 48.7304 106.21 49.5148V64.1113C106.21 67.1722 108.697 69.6591 111.758 69.6591H126.048C126.928 69.6974 127.827 69.3722 128.497 68.7026C129.798 67.4209 129.798 65.3166 128.497 64.0348C128.497 64.0348 128.459 63.9965 128.382 63.92C128.21 63.767 127.904 63.5374 127.406 63.3079C124.116 61.8157 121.17 59.7687 118.606 57.2244C116.043 54.6609 113.996 51.7148 112.504 48.4052L112.485 48.367Z" fill="white" fill-opacity="0.1"/>
<path d="M94.4447 96.4035C94.6743 96.8817 94.9039 97.1878 95.0569 97.3409C95.076 97.36 95.0952 97.3791 95.0952 97.3791C96.3961 98.6609 98.4813 98.6609 99.7821 97.3791C100.375 96.7861 100.681 96.0208 100.72 95.2556V80.6591C100.72 77.5982 98.2326 75.1113 95.1717 75.1113H80.8813C80.0013 75.0921 79.1021 75.3983 78.4326 76.0678C77.1317 77.3687 77.1508 79.4539 78.4326 80.7548C78.4326 80.7548 78.4708 80.793 78.5473 80.8695C78.7195 81.0226 79.0256 81.2522 79.523 81.4817C82.8326 82.993 85.7787 85.0208 88.323 87.5652C90.8865 90.1287 92.9143 93.0747 94.4256 96.3843L94.4447 96.4035Z" fill="white" fill-opacity="0.1"/>
<path d="M107.339 73.4088C107.913 71.2661 106.65 69.0662 104.488 68.4922C102.346 67.9183 100.146 69.2 99.5717 71.3427C98.9978 73.4853 100.26 75.6853 102.403 76.2592C104.546 76.8331 106.746 75.5514 107.32 73.4088H107.339Z" fill="white" fill-opacity="0.1"/>
<path d="M162.664 9.51306C162.951 9.07306 163.104 8.70958 163.18 8.49915C163.18 8.46089 163.18 8.44173 163.18 8.44173C163.659 6.68173 162.606 4.86433 160.846 4.38608C160.024 4.17564 159.22 4.29044 158.513 4.63478L145.867 11.9426C143.208 13.473 142.309 16.8783 143.84 19.5183L150.975 31.8765C151.396 32.6609 152.123 33.2539 153.041 33.5026C154.801 33.9809 156.619 32.9287 157.097 31.1687C157.097 31.1687 157.097 31.1113 157.135 31.0157C157.173 30.7861 157.231 30.4226 157.193 29.8678C156.848 26.2713 157.135 22.6939 158.053 19.2122C158.991 15.7113 160.54 12.4783 162.645 9.53218L162.664 9.51306Z" fill="white" fill-opacity="0.1"/>
<path d="M130.812 7.90604L123.657 -4.47134C123.236 -5.23656 122.509 -5.84872 121.61 -6.09743C119.85 -6.57568 118.013 -5.52351 117.554 -3.76352C117.554 -3.76352 117.535 -3.70613 117.497 -3.59135C117.459 -3.36179 117.401 -2.97919 117.439 -2.44353C117.784 1.153 117.516 4.73039 116.559 8.21213C115.622 11.713 114.072 14.946 111.968 17.8921C111.681 18.3321 111.528 18.6765 111.452 18.906C111.452 18.9443 111.452 18.9634 111.452 18.9634C110.973 20.7426 112.026 22.5408 113.805 23.0191C114.627 23.2295 115.431 23.1147 116.119 22.7704L128.784 15.4626C131.443 13.9321 132.342 10.5461 130.812 7.88692V7.90604Z" fill="white" fill-opacity="0.1"/>
<path d="M155.528 0.0626221C156.313 -0.358246 156.925 -1.06607 157.154 -1.98433C157.633 -3.74432 156.58 -5.56172 154.82 -6.03998C154.82 -6.03998 154.763 -6.03999 154.667 -6.07825C154.438 -6.1165 154.055 -6.1739 153.52 -6.13565C149.904 -5.79131 146.346 -6.07825 142.845 -7.01564C139.344 -7.95303 136.111 -9.48346 133.146 -11.5878C132.706 -11.8748 132.361 -12.0278 132.132 -12.1043C132.093 -12.1043 132.074 -12.1043 132.074 -12.1043C130.314 -12.5826 128.497 -11.5304 128.019 -9.77042C127.808 -8.96693 127.923 -8.14432 128.267 -7.45563L135.575 5.18958C137.106 7.82957 140.492 8.74783 143.151 7.21739L155.528 0.0817413V0.0626221Z" fill="white" fill-opacity="0.1"/>
<path d="M142.539 39.5287L142.596 39.5479C144.356 40.0262 146.173 38.974 146.652 37.214C146.881 36.4105 146.747 35.5879 146.403 34.8992L139.095 22.254C137.565 19.5948 134.16 18.6957 131.52 20.2261L119.142 27.3809C118.358 27.8018 117.746 28.5096 117.516 29.4279C117.038 31.1879 118.09 33.0053 119.85 33.4836C119.85 33.4836 119.907 33.4835 120.022 33.5218C120.233 33.5601 120.634 33.6175 121.17 33.5792C124.786 33.2348 128.363 33.5218 131.845 34.4401C135.346 35.3774 138.579 36.927 141.544 39.0313C141.984 39.3374 142.328 39.4714 142.539 39.5479V39.5287Z" fill="white" fill-opacity="0.1"/>
<path d="M136.302 9.83827C134.159 10.4122 132.878 12.6122 133.471 14.7548C134.045 16.8974 136.245 18.1791 138.387 17.6052C140.53 17.0313 141.793 14.8122 141.219 12.6887C140.645 10.5461 138.445 9.28348 136.302 9.85739V9.83827Z" fill="white" fill-opacity="0.1"/>
<path d="M157.097 -71.4278V-71.4852C156.619 -73.2452 154.801 -74.2974 153.041 -73.8191C152.219 -73.5896 151.587 -73.0922 151.147 -72.4417L143.859 -59.7965C142.328 -57.1374 143.227 -53.7513 145.886 -52.2209L158.264 -45.0852C159.01 -44.6261 159.947 -44.4539 160.866 -44.7026C162.626 -45.1809 163.678 -46.9791 163.199 -48.7583C163.199 -48.7583 163.199 -48.8157 163.161 -48.9113C163.085 -49.1217 162.951 -49.4852 162.645 -49.9252C160.54 -52.8713 158.991 -56.1043 158.053 -59.5861C157.116 -63.0869 156.829 -66.6644 157.173 -70.28C157.212 -70.7965 157.173 -71.1791 157.116 -71.4087L157.097 -71.4278Z" fill="white" fill-opacity="0.1"/>
<path d="M128.765 -55.7983L116.387 -62.9339C115.641 -63.3931 114.723 -63.5652 113.805 -63.3165C112.026 -62.8383 110.993 -61.0209 111.471 -59.2609C111.471 -59.2609 111.471 -59.2035 111.509 -59.0887C111.586 -58.8783 111.739 -58.5148 112.045 -58.0748C114.149 -55.1287 115.699 -51.8957 116.617 -48.3948C117.554 -44.8939 117.841 -41.3357 117.497 -37.72C117.459 -37.1844 117.497 -36.8209 117.554 -36.5913C117.554 -36.5531 117.554 -36.5339 117.554 -36.5339C118.033 -34.7739 119.85 -33.7218 121.61 -34.2C122.413 -34.4105 123.064 -34.927 123.485 -35.5774L130.793 -48.2226C132.323 -50.8818 131.424 -54.2678 128.765 -55.7983Z" fill="white" fill-opacity="0.1"/>
<path d="M121.017 -73.8383C120.481 -73.8765 120.118 -73.8383 119.888 -73.7809C119.85 -73.7809 119.831 -73.7809 119.831 -73.7809C118.052 -73.3026 117.019 -71.4852 117.497 -69.7252C117.707 -68.9217 118.224 -68.2713 118.874 -67.8504L131.52 -60.5426C134.179 -59.0122 137.565 -59.9304 139.095 -62.5704L146.25 -74.9287C146.709 -75.6748 146.881 -76.6122 146.633 -77.5304C146.154 -79.2904 144.356 -80.3426 142.577 -79.8643C142.577 -79.8643 142.52 -79.8643 142.405 -79.8261C142.175 -79.7496 141.831 -79.5965 141.391 -79.3096C138.445 -77.2052 135.212 -75.6748 131.711 -74.7374C128.21 -73.8 124.633 -73.513 121.017 -73.8574V-73.8383Z" fill="white" fill-opacity="0.1"/>
<path d="M128.401 -33.1096C127.942 -32.3635 127.77 -31.4261 128.019 -30.5078C128.497 -28.7478 130.314 -27.6957 132.074 -28.1739C132.074 -28.1739 132.132 -28.1739 132.246 -28.2122C132.457 -28.2887 132.82 -28.4226 133.26 -28.7287C136.206 -30.8331 139.439 -32.3635 142.921 -33.32C146.422 -34.2574 149.999 -34.5444 153.615 -34.2C154.151 -34.1618 154.514 -34.2 154.744 -34.2574C154.782 -34.2574 154.801 -34.2574 154.82 -34.2574C156.58 -34.7357 157.633 -36.5531 157.154 -38.3131C156.944 -39.1165 156.427 -39.767 155.777 -40.1878L143.132 -47.4765C140.473 -49.007 137.086 -48.1078 135.556 -45.4487L128.42 -33.0713L128.401 -33.1096Z" fill="white" fill-opacity="0.1"/>
<path d="M140.166 -51.1687C141.735 -52.7374 141.716 -55.2817 140.166 -56.8504C138.598 -58.4191 136.053 -58.4191 134.485 -56.8504C132.916 -55.2817 132.916 -52.7374 134.485 -51.1687C136.053 -49.6 138.598 -49.6 140.166 -51.1687Z" fill="white" fill-opacity="0.1"/>
<path d="M118.549 -127.863C115.986 -130.426 113.958 -133.372 112.446 -136.682C112.217 -137.141 111.987 -137.466 111.834 -137.619C111.796 -137.638 111.796 -137.657 111.796 -137.657C110.495 -138.958 108.41 -138.958 107.128 -137.657C106.535 -137.064 106.229 -136.299 106.172 -135.515V-120.918C106.172 -117.857 108.659 -115.37 111.719 -115.37H126.01C126.89 -115.351 127.77 -115.677 128.459 -116.346C129.759 -117.628 129.759 -119.732 128.459 -121.033C128.459 -121.033 128.42 -121.071 128.344 -121.148C128.172 -121.301 127.866 -121.53 127.368 -121.779C124.078 -123.271 121.132 -125.318 118.568 -127.863H118.549Z" fill="white" fill-opacity="0.1"/>
<path d="M95.1143 -109.918H80.8239C79.9439 -109.957 79.0639 -109.631 78.3943 -108.943C77.1126 -107.661 77.0934 -105.557 78.3943 -104.275C78.3943 -104.275 78.4326 -104.237 78.5091 -104.16C78.6813 -104.007 78.9874 -103.777 79.4848 -103.529C82.7752 -102.037 85.7213 -100.009 88.2848 -97.4452C90.8483 -94.9009 92.8761 -91.9357 94.3874 -88.6452C94.6169 -88.167 94.8465 -87.8609 94.9995 -87.6887L95.0378 -87.6505C96.3387 -86.3496 98.4239 -86.3496 99.7248 -87.6505C100.318 -88.2435 100.605 -89.0087 100.662 -89.7739V-104.39C100.662 -107.45 98.1752 -109.937 95.1143 -109.937V-109.918Z" fill="white" fill-opacity="0.1"/>
<path d="M99.7056 -137.677C98.4239 -138.958 96.3195 -138.958 95.0378 -137.677C95.0378 -137.677 94.9995 -137.638 94.923 -137.562C94.7699 -137.39 94.5404 -137.083 94.2917 -136.605C92.7804 -133.315 90.7717 -130.369 88.2082 -127.805C85.6447 -125.242 82.6986 -123.214 79.3891 -121.703C78.9108 -121.473 78.6239 -121.243 78.4517 -121.09C78.4326 -121.052 78.4135 -121.033 78.4135 -121.033C77.1126 -119.732 77.1126 -117.647 78.4135 -116.346C79.0065 -115.753 79.7717 -115.447 80.5369 -115.409H95.1526C98.2134 -115.409 100.7 -117.896 100.7 -120.957V-135.228C100.739 -136.127 100.413 -137.007 99.7439 -137.677H99.7056Z" fill="white" fill-opacity="0.1"/>
<path d="M126.316 -109.918H111.7C108.639 -109.918 106.153 -107.431 106.153 -104.37V-90.08C106.114 -89.2 106.44 -88.3009 107.109 -87.6313C108.41 -86.3496 110.495 -86.3496 111.796 -87.6313C111.796 -87.6313 111.834 -87.6696 111.911 -87.7652C112.064 -87.9374 112.313 -88.2435 112.542 -88.7218C114.053 -92.0313 116.081 -94.9583 118.626 -97.5217C121.189 -100.085 124.135 -102.113 127.445 -103.624C127.923 -103.854 128.229 -104.083 128.401 -104.237C128.42 -104.256 128.44 -104.275 128.459 -104.275C129.74 -105.576 129.74 -107.661 128.459 -108.962C127.866 -109.555 127.1 -109.861 126.335 -109.899L126.316 -109.918Z" fill="white" fill-opacity="0.1"/>
<path d="M104.45 -116.537C102.307 -117.111 100.107 -115.83 99.5334 -113.706C98.9595 -111.563 100.241 -109.363 102.384 -108.79C104.526 -108.216 106.746 -109.478 107.319 -111.621C107.893 -113.763 106.612 -115.963 104.469 -116.537H104.45Z" fill="white" fill-opacity="0.1"/>
<path d="M62.1908 -166.277C62.1908 -166.277 62.1334 -166.277 62.0378 -166.315C61.8082 -166.353 61.4447 -166.41 60.8899 -166.372C57.2934 -166.028 53.716 -166.315 50.2151 -167.252C46.7334 -168.19 43.4812 -169.739 40.516 -171.843C40.076 -172.13 39.7317 -172.283 39.5021 -172.36C39.4639 -172.36 39.4447 -172.36 39.4447 -172.36C37.6847 -172.838 35.8673 -171.786 35.3891 -170.026C35.1786 -169.203 35.2934 -168.4 35.6378 -167.692L42.9456 -155.047C44.476 -152.388 47.8621 -151.489 50.5212 -153.019L62.8986 -160.155C63.683 -160.576 64.276 -161.303 64.5247 -162.221C65.003 -163.981 63.9508 -165.798 62.1717 -166.277H62.1908Z" fill="white" fill-opacity="0.1"/>
<path d="M26.5316 -132.856C25.7473 -132.435 25.1543 -131.708 24.9055 -130.809C24.4273 -129.049 25.4795 -127.231 27.2395 -126.753C27.2395 -126.753 27.2969 -126.753 27.4116 -126.715C27.6412 -126.677 28.0238 -126.619 28.5594 -126.657C32.156 -127.002 35.7334 -126.715 39.2343 -125.777C42.7351 -124.84 45.9682 -123.29 48.9142 -121.186C49.3542 -120.899 49.6986 -120.746 49.9282 -120.67C49.9664 -120.67 49.9855 -120.65 49.9855 -120.65C51.7455 -120.172 53.5629 -121.224 54.0412 -123.003C54.2516 -123.807 54.1369 -124.61 53.7734 -125.318L46.4656 -137.963C44.9351 -140.623 41.549 -141.522 38.8899 -139.991L26.5125 -132.856H26.5316Z" fill="white" fill-opacity="0.1"/>
<path d="M19.3769 -142.325C19.0899 -141.885 18.9369 -141.541 18.8604 -141.33C18.8604 -141.292 18.8604 -141.254 18.8604 -141.254C18.3821 -139.494 19.4343 -137.677 21.1943 -137.198C22.0169 -136.988 22.8204 -137.103 23.5091 -137.447L36.1543 -144.755C38.8134 -146.285 39.7126 -149.671 38.1821 -152.33L31.0465 -164.708C30.6256 -165.473 29.9178 -166.085 28.9995 -166.334C27.2395 -166.812 25.4221 -165.76 24.9438 -164C24.9438 -164 24.9438 -163.943 24.9056 -163.847C24.8673 -163.617 24.81 -163.235 24.8482 -162.699C25.1926 -159.083 24.9056 -155.525 23.9873 -152.024C23.0499 -148.523 21.5195 -145.29 19.396 -142.344L19.3769 -142.325Z" fill="white" fill-opacity="0.1"/>
<path d="M68.236 -155.831C67.4325 -156.061 66.6099 -155.927 65.9212 -155.583L53.276 -148.275C50.6169 -146.744 49.6986 -143.358 51.2482 -140.699L58.4029 -128.341C58.8238 -127.576 59.5316 -126.963 60.4499 -126.715C62.2291 -126.237 64.0273 -127.289 64.5056 -129.049C64.5056 -129.049 64.5056 -129.106 64.5438 -129.221C64.6012 -129.45 64.6395 -129.833 64.6012 -130.369C64.2568 -133.984 64.5438 -137.543 65.4621 -141.043C66.3994 -144.544 67.949 -147.777 70.0534 -150.723C70.3403 -151.163 70.4934 -151.508 70.5699 -151.718C70.5699 -151.757 70.5699 -151.776 70.5699 -151.776C71.0482 -153.536 69.996 -155.353 68.2169 -155.831H68.236Z" fill="white" fill-opacity="0.1"/>
<path d="M45.7578 -142.631C47.9004 -143.205 49.1821 -145.405 48.6082 -147.548C48.0343 -149.69 45.8152 -150.953 43.6917 -150.379C41.5491 -149.805 40.2673 -147.605 40.8413 -145.463C41.4152 -143.32 43.6152 -142.057 45.7578 -142.631Z" fill="white" fill-opacity="0.1"/>
<path d="M10.8256 -153.937C13.0447 -153.937 14.843 -155.736 14.843 -157.955C14.843 -160.174 13.0447 -161.972 10.8256 -161.972C8.60646 -161.972 6.8082 -160.174 6.8082 -157.955C6.8082 -155.736 8.60646 -153.937 10.8256 -153.937Z" fill="white" fill-opacity="0.1"/>
<path d="M-60.0527 -142.995C-61.9657 -141.885 -62.6353 -139.437 -61.5257 -137.504C-60.4162 -135.591 -57.9483 -134.922 -56.0353 -136.031C-54.1031 -137.141 -53.4527 -139.609 -54.5622 -141.522C-55.6718 -143.435 -58.1396 -144.104 -60.0527 -142.995Z" fill="white" fill-opacity="0.1"/>
<path d="M-112.03 -91.0939C-113.14 -89.1808 -112.489 -86.713 -110.557 -85.6035C-108.644 -84.4939 -106.176 -85.1443 -105.067 -87.0765C-103.957 -88.9895 -104.627 -91.4574 -106.54 -92.5669C-108.472 -93.6765 -110.921 -93.0261 -112.03 -91.0939Z" fill="white" fill-opacity="0.1"/>
<path d="M-131.084 -20.1774C-131.084 -17.9583 -129.286 -16.16 -127.067 -16.16C-124.847 -16.16 -123.049 -17.9583 -123.049 -20.1774C-123.049 -22.3965 -124.847 -24.1948 -127.067 -24.1948C-129.286 -24.1948 -131.084 -22.3965 -131.084 -20.1774Z" fill="white" fill-opacity="0.1"/>
<path d="M-105.143 46.7408C-106.253 44.8087 -108.701 44.1582 -110.634 45.2678C-112.547 46.3773 -113.216 48.8261 -112.107 50.7582C-110.997 52.6713 -108.529 53.3408 -106.616 52.2313C-104.703 51.1217 -104.034 48.673 -105.143 46.7408Z" fill="white" fill-opacity="0.1"/>
<path d="M-60.1674 102.697C-58.2544 103.807 -55.7866 103.137 -54.677 101.224C-53.5674 99.3113 -54.2179 96.8435 -56.1501 95.7339C-58.0822 94.6244 -60.5309 95.2939 -61.6405 97.207C-62.75 99.1391 -62.0996 101.588 -60.1674 102.697Z" fill="white" fill-opacity="0.1"/>
<path d="M6.76994 117.734C6.76994 119.953 8.56821 121.751 10.7873 121.751C13.0065 121.751 14.8047 119.953 14.8047 117.734C14.8047 115.515 13.0065 113.717 10.7873 113.717C8.56821 113.717 6.76994 115.515 6.76994 117.734Z" fill="white" fill-opacity="0.1"/>
<path d="M81.7804 102.774C83.6934 101.664 84.363 99.2156 83.2343 97.2835C82.1248 95.3704 79.676 94.7009 77.7438 95.8105C75.8308 96.92 75.1612 99.3687 76.2708 101.301C77.3803 103.233 79.8291 103.883 81.7613 102.774H81.7804Z" fill="white" fill-opacity="0.1"/>
<path d="M133.758 50.8731C134.867 48.9601 134.198 46.4922 132.285 45.3827C130.372 44.2731 127.904 44.9236 126.794 46.8557C125.685 48.7879 126.354 51.2366 128.267 52.3462C130.18 53.4557 132.648 52.7862 133.758 50.8731Z" fill="white" fill-opacity="0.1"/>
<path d="M144.777 -20.0435C144.777 -17.8243 146.575 -16.0261 148.794 -16.0261C151.013 -16.0261 152.812 -17.8243 152.812 -20.0435C152.812 -22.2626 151.013 -24.0609 148.794 -24.0609C146.575 -24.0609 144.777 -22.2626 144.777 -20.0435Z" fill="white" fill-opacity="0.1"/>
<path d="M126.871 -86.9617C127.98 -85.0487 130.448 -84.3791 132.361 -85.4887C134.293 -86.5983 134.944 -89.047 133.834 -90.9791C132.725 -92.8922 130.257 -93.5618 128.344 -92.4331C126.431 -91.3235 125.761 -88.8748 126.871 -86.9426V-86.9617Z" fill="white" fill-opacity="0.1"/>
<path d="M81.8952 -142.937C79.9821 -144.047 77.5143 -143.377 76.4047 -141.464C75.2952 -139.551 75.9647 -137.083 77.8778 -135.974C79.8099 -134.864 82.2587 -135.534 83.3682 -137.447C84.4778 -139.379 83.8082 -141.828 81.8952 -142.937Z" fill="white" fill-opacity="0.1"/>
<path d="M-61.8509 -65.3826C-81.9953 -53.4452 -93.0718 -37.3565 -93.0718 -20.0817C-93.0718 -2.80695 -81.9762 13.2818 -61.8127 25.2C-42.3188 36.7357 -16.5118 43.087 10.9021 43.0678C38.2969 43.0678 64.123 36.6974 83.5977 25.1618C103.742 13.2244 114.838 -2.86433 114.819 -20.1391C114.819 -37.4139 103.723 -53.5026 83.5786 -65.4209C65.0413 -76.3826 40.7838 -82.6574 14.8812 -83.2313V-91.3235H53.6395C55.8586 -91.3235 57.6569 -93.1217 57.6569 -95.3409C57.6569 -97.56 55.8586 -99.3582 53.6395 -99.3582H14.8812V-107.374H39.3682C41.5873 -107.374 43.3856 -109.172 43.3856 -111.391C43.3856 -113.61 41.5873 -115.409 39.3682 -115.409H14.8812V-123.443C14.8812 -125.663 13.083 -127.461 10.8639 -127.461C8.64473 -127.461 6.84647 -125.663 6.84647 -123.443V-115.409H-17.6405C-19.8596 -115.409 -21.6579 -113.61 -21.6579 -111.391C-21.6579 -109.172 -19.8596 -107.374 -17.6405 -107.374H6.84647V-99.3391H-31.9118C-34.1309 -99.3391 -35.9292 -97.5217 -35.9292 -95.3026C-35.9292 -93.0835 -34.1309 -91.2852 -31.9118 -91.2852H6.84647V-83.2122C-19.0561 -82.6191 -43.3135 -76.3252 -61.8318 -65.3635L-61.8509 -65.3826ZM106.765 -20.1391C106.765 10.2783 63.7595 35.0139 10.883 35.0331C-41.9935 35.0331 -85.037 10.3165 -85.037 -20.0817C-85.037 -50.4991 -42.0318 -75.2348 10.8447 -75.2539C63.7213 -75.2539 106.765 -50.5374 106.765 -20.1391Z" fill="white" fill-opacity="0.1"/>
<path d="M-48.5744 -90.0991L-53.6631 -91.5339C-55.1553 -91.9548 -56.8196 -91.7443 -58.2544 -91.0748C-58.3501 -91.0365 -58.6753 -90.8835 -58.7518 -90.8643C-60.2057 -90.2522 -61.4875 -89.1617 -62.1762 -87.7843L-68.3936 -75.407C-68.6805 -74.8713 -68.7379 -74.2017 -68.4701 -73.6087C-68.0109 -72.5565 -66.7866 -72.0782 -65.7153 -72.5374C-65.677 -72.5565 -65.6196 -72.5948 -65.5622 -72.6139C-65.5622 -72.6139 -65.524 -72.6139 -65.524 -72.633C-61.3918 -74.9095 -57.2596 -76.9948 -53.1466 -78.8313C-49.0144 -80.6104 -44.6909 -82.2748 -40.2144 -83.7669C-40.2144 -83.7669 -40.1762 -83.7669 -40.157 -83.7861C-40.157 -83.7861 -40.0422 -83.8243 -40.004 -83.8435C-38.9518 -84.3026 -38.4544 -85.5269 -38.9327 -86.5791C-39.2005 -87.1913 -39.717 -87.593 -40.3101 -87.7461L-48.5361 -90.08L-48.5744 -90.0991Z" fill="white" fill-opacity="0.1"/>
<path d="M70.283 -90.1374L62.0569 -87.8035C61.4638 -87.6313 60.9473 -87.2296 60.6795 -86.6174C60.2204 -85.5844 60.6795 -84.36 61.7508 -83.8817C61.7891 -83.8817 61.8464 -83.8435 61.9038 -83.8244C61.9038 -83.8244 61.9421 -83.8244 61.9612 -83.8052C66.4378 -82.313 70.7612 -80.6487 74.9125 -78.8696C79.0256 -77.0331 83.1578 -74.967 87.2899 -72.6904C87.2899 -72.6904 87.3091 -72.6904 87.3282 -72.6713C87.3282 -72.6713 87.4238 -72.6139 87.4812 -72.5948C88.5334 -72.1357 89.7578 -72.6139 90.236 -73.6661C90.5038 -74.2591 90.4465 -74.9287 90.1595 -75.4835L83.923 -87.8609C83.2151 -89.2574 81.9526 -90.3287 80.4795 -90.9409C80.403 -90.9791 80.0777 -91.1322 79.9821 -91.1513C78.5473 -91.8017 76.883 -92.0122 75.3908 -91.6104L70.3021 -90.1757L70.283 -90.1374Z" fill="white" fill-opacity="0.1"/>
<path d="M70.3212 49.8783L75.4099 51.3131C76.9021 51.7148 78.5664 51.5236 80.0012 50.854C80.0969 50.8157 80.4221 50.6818 80.4986 50.6436C81.9525 50.0122 83.2343 48.9409 83.9421 47.5635L90.1595 35.1862C90.4464 34.6505 90.5038 33.9809 90.236 33.3879C89.7769 32.3548 88.5525 31.8575 87.5003 32.3357C87.4429 32.3549 87.4047 32.3931 87.3473 32.4123C87.3473 32.4123 87.309 32.4122 87.309 32.4314C83.1768 34.7079 79.0447 36.7931 74.9316 38.6296C70.7995 40.4088 66.476 42.0731 61.9803 43.5653C61.9803 43.5653 61.9421 43.5653 61.9421 43.5844C61.9421 43.5844 61.8464 43.6227 61.789 43.6418C60.7368 44.101 60.2586 45.3253 60.7177 46.3774C60.9856 46.9896 61.5212 47.3914 62.0951 47.5444L70.3212 49.8783Z" fill="white" fill-opacity="0.1"/>
<path d="M-48.5553 49.9166L-40.3292 47.5826C-39.7361 47.4105 -39.2197 47.0088 -38.9518 46.3966C-38.4927 45.3635 -38.9518 44.1392 -40.0231 43.6609C-40.0614 43.6609 -40.1188 43.6227 -40.1762 43.6035C-40.1762 43.6035 -40.2144 43.6035 -40.2336 43.5844C-44.7101 42.0922 -49.0336 40.4279 -53.1657 38.6487C-57.2788 36.8122 -61.4109 34.7462 -65.5431 32.4696C-65.5431 32.4696 -65.5814 32.4696 -65.5814 32.4505C-65.5814 32.4505 -65.677 32.3931 -65.7344 32.374C-66.7866 31.9148 -68.0109 32.3931 -68.4701 33.4261C-68.7379 34.0192 -68.6805 34.6888 -68.3936 35.2435L-62.157 47.6209C-61.4492 48.9983 -60.1866 50.0887 -58.7135 50.7009C-58.637 50.7392 -58.2927 50.8922 -58.2162 50.9113C-56.7814 51.5809 -55.117 51.7722 -53.6249 51.3513L-48.5362 49.9166H-48.5553Z" fill="white" fill-opacity="0.1"/>
<path d="M-40.9796 66.4835C-40.9796 66.4835 -40.884 66.5218 -40.8266 66.5409C-40.8266 66.5409 -40.7883 66.5409 -40.7692 66.56C-36.2927 68.0522 -31.9692 69.7165 -27.837 71.4957C-23.724 73.3322 -19.5918 75.3983 -15.4596 77.6748C-15.4596 77.6748 -15.4214 77.6748 -15.4214 77.6939C-15.4214 77.6939 -15.3257 77.7513 -15.2683 77.7704C-14.2162 78.2296 -12.9918 77.7513 -12.5136 76.6992C-12.2457 76.1061 -12.3031 75.4365 -12.5901 74.8817L-18.8266 62.5044C-19.5344 61.127 -20.797 60.0365 -22.2701 59.4243C-22.3466 59.3861 -22.6909 59.2331 -22.7675 59.2139C-24.2022 58.5635 -25.8666 58.3531 -27.3588 58.7739L-32.4475 60.2087L-40.6736 62.5426C-41.2666 62.7148 -41.7831 63.1165 -42.0509 63.7287C-42.5101 64.7617 -42.0509 65.9861 -40.9796 66.4644V66.4835Z" fill="white" fill-opacity="0.1"/>
<path d="M62.6117 66.5027C62.6117 66.5027 62.7264 66.4644 62.7647 66.4453C63.8169 65.9861 64.2951 64.7618 63.836 63.7097C63.5682 63.0975 63.0517 62.6957 62.4586 62.5427L54.2325 60.2088L49.1438 58.774C47.6517 58.3723 45.9873 58.5635 44.5526 59.2331C44.4569 59.2714 44.1317 59.4053 44.0551 59.4435C42.6012 60.0557 41.3195 61.1461 40.6116 62.5235L34.3943 74.9009C34.1073 75.4366 34.0499 76.1061 34.3177 76.6992C34.7769 77.7514 36.0012 78.2105 37.0534 77.7514C37.1108 77.7322 37.149 77.694 37.2064 77.6748C37.2064 77.6748 37.2447 77.6749 37.2447 77.6557C41.3769 75.3792 45.5091 73.294 49.6221 71.4575C53.7543 69.6783 58.0777 68.014 62.5543 66.5218C62.5543 66.5218 62.5925 66.5218 62.6117 66.5027Z" fill="white" fill-opacity="0.1"/>
<path d="M27.9856 59.5009C30.1091 57.3774 33.3612 56.4018 34.3752 52.92C31.8691 52.6905 29.0569 51.7722 26.9525 51.887C22.5526 52.1548 21.2134 57.3774 19.3386 60.5339C18.1908 58.9652 16.9282 57.7026 15.4169 56.0192C14.2882 54.7374 12.6047 52.3653 10.883 52.3079C9.16124 52.3653 7.47775 54.7374 6.34906 56.0192C4.83775 57.7218 3.57516 58.9844 2.42734 60.5339C0.533432 57.3774 -0.80571 52.1548 -5.18658 51.887C-7.29094 51.7531 -10.084 52.6905 -12.6092 52.92C-11.5953 56.4018 -8.34311 57.3774 -6.21964 59.5009C-1.95355 63.7478 2.00644 69.0087 5.31601 74.327C6.38731 76.0104 8.68298 81.9218 10.883 81.9409C13.083 81.9218 15.3786 76.0104 16.4499 74.327C19.7786 69.0087 23.7386 63.7479 27.9856 59.4818V59.5009ZM10.883 67.9948C9.86906 67.5357 9.08472 64.8766 9.08472 61.6053C9.08472 58.3531 9.86906 55.6939 10.883 55.2348C11.8969 55.6939 12.6812 58.3531 12.6812 61.6053C12.6812 64.8574 11.8969 67.5357 10.883 67.9948Z" fill="white" fill-opacity="0.1"/>
<path d="M-8.24745 -59.8157C-8.24745 -59.8157 -8.38136 -59.7583 -8.43875 -59.72C-9.0318 -59.4139 -9.43355 -58.8017 -9.43355 -58.0939C-9.43355 -57.08 -8.61095 -56.2574 -7.59703 -56.2574H29.2865C30.3004 -56.2574 31.1421 -57.0991 31.123 -58.1131C31.123 -58.8591 30.6638 -59.5096 30.0325 -59.7965L16.8708 -65.9948C16.8708 -65.9948 12.4134 -68.2713 10.8638 -68.2713C9.31429 -68.2713 4.87602 -66.0139 4.87602 -66.0139L-8.26659 -59.8157H-8.24745Z" fill="white" fill-opacity="0.1"/>
<path d="M29.3247 16.0173H-7.55875C-8.57266 16.0173 -9.4144 16.8399 -9.39526 17.873C-9.39526 18.6191 -8.93613 19.2695 -8.30482 19.5565L4.8569 25.7547C4.8569 25.7547 9.3143 28.0312 10.8639 28.0312C12.4134 28.0312 16.8517 25.7739 16.8517 25.7739L29.9943 19.5947C29.9943 19.5947 30.1282 19.5373 30.1856 19.4991C30.7786 19.1739 31.1804 18.5808 31.1804 17.873C31.1804 16.8591 30.3578 16.0365 29.3247 16.0365V16.0173Z" fill="white" fill-opacity="0.1"/>
<path d="M-36.3118 -42.9617C-39.6596 -46.5774 -44.3848 -47.8209 -49.5118 -47.8209C-54.237 -47.8209 -58.9622 -46.52 -62.0996 -43.0383C-65.5814 -39.2122 -66.4805 -30.0869 -66.4805 -24.96V-16.9635C-66.4805 -14.7826 -66.2701 -6.19304 -65.1796 -2.65392C-62.6544 5.82086 -54.5622 7.60002 -49.6457 7.60002C-46.4318 7.60002 -40.4057 7.12175 -36.2353 2.60696C-33.0788 -0.817383 -31.9309 -9.54086 -31.9309 -16.5809V-23.2765C-31.9309 -31.3496 -33.5188 -39.9965 -36.3118 -43V-42.9617ZM-49.3014 -0.0904236C-54.237 -0.0904236 -55.2509 -6.78609 -55.2509 -12.047V-29.3026C-55.2509 -31.2922 -55.2509 -39.9583 -49.1674 -39.9583C-43.3518 -39.9583 -43.3518 -32.8035 -43.3518 -29.3026V-12.047C-43.3518 -8.56522 -43.3518 -0.0904236 -49.3014 -0.0904236Z" fill="white" fill-opacity="0.1"/>
<path d="M-1.28397 3.69739C-0.346573 6.29913 2.33168 7.69566 4.70386 6.85393C7.07603 5.99306 8.243 3.2 7.3056 0.617386L0.322998 -18.7426C5.77518 -21.6887 8.35777 -27.16 8.35777 -31.0626C8.35777 -42.5217 3.05865 -46.9217 -8.34309 -46.9217H-18.8457C-22.0788 -46.9217 -24.6805 -44.3009 -24.6805 -41.0678L-24.8909 1.21045C-24.8909 4.4435 -22.4996 7.04521 -19.5344 7.04521C-16.5883 7.04521 -14.1779 4.42436 -14.1779 1.21045L-13.9674 -16.6574H-8.63005L-1.26483 3.71652L-1.28397 3.69739ZM-13.9866 -24.2713V-39.3461H-10.4092C-4.38309 -39.3461 -2.50832 -37.4904 -2.50832 -31.0817C-2.50832 -27.5043 -4.36397 -24.2904 -10.4092 -24.2713H-13.9866Z" fill="white" fill-opacity="0.1"/>
<path d="M54.8256 -2.65392C57.37 5.82086 65.443 7.60001 70.3595 7.60001C73.5734 7.60001 79.5995 7.12173 83.77 2.60695C86.9074 -0.817398 88.0743 -9.52174 88.0743 -16.5809V-23.2765C88.0743 -31.3496 86.4865 -39.9965 83.6935 -43C80.3456 -46.6156 75.6204 -47.8591 70.4934 -47.8591C65.7682 -47.8591 61.043 -46.5583 57.9056 -43.0765C54.4239 -39.2504 53.5247 -30.1252 53.5247 -24.9983V-17.0017C53.5247 -14.8209 53.7352 -6.23129 54.8256 -2.67303V-2.65392ZM70.8187 -39.9774C76.6343 -39.9774 76.6343 -32.8226 76.6343 -29.3409V-12.0852C76.6343 -8.60349 76.6343 -0.128708 70.6847 -0.128708C65.7491 -0.128708 64.7352 -6.80522 64.7352 -12.0661V-29.3217C64.7352 -31.3113 64.7352 -39.9774 70.8187 -39.9774Z" fill="white" fill-opacity="0.1"/>
<path d="M15.8761 -41.0296V1.65044C15.8761 4.2713 18.0187 6.39479 20.6395 6.39479H43.1178C45.7387 6.39479 47.8621 4.44348 47.8621 2.05217C47.8621 -0.339142 45.7387 -2.29044 43.1178 -2.2713H26.57V-16.753H41.4534C44.0743 -16.753 46.1978 -18.6852 46.1978 -21.0765C46.1978 -23.4678 44.0552 -25.4 41.4343 -25.4H26.4169V-37.9304H42.563C45.1839 -37.9304 47.3073 -39.9391 47.3073 -42.407C47.3073 -44.8748 45.1839 -46.8835 42.5439 -46.8835H21.7108C18.4778 -46.8835 15.8569 -44.2626 15.8761 -41.0296Z" fill="white" fill-opacity="0.1"/>
</svg>
