<svg width="20" height="20" viewBox="0 0 20 20" fill="none" xmlns="http://www.w3.org/2000/svg">
<g clip-path="url(#clip0_900_485)">
<path d="M14.5455 0H5.45455C2.44545 0 0 2.44545 0 5.45455V14.5455C0 17.5545 2.44545 20 5.45455 20H14.5455C17.5545 20 20 17.5545 20 14.5455V5.45455C20 2.44545 17.5545 0 14.5455 0ZM18.1818 14.5455C18.1818 16.5545 16.5545 18.1818 14.5455 18.1818H12.0909V13.2727H14.2727L15 10.3636H12.0909V8.18182C12.0909 7.78182 12.4182 7.45455 12.8182 7.45455H15V4.54545H12.8182C10.8091 4.54545 9.18182 6.17273 9.18182 8.18182V10.3636H7V13.2727H9.18182V18.1818H5.45455C3.44545 18.1818 1.81818 16.5545 1.81818 14.5455V5.45455C1.81818 3.44545 3.44545 1.81818 5.45455 1.81818H14.5455C16.5545 1.81818 18.1818 3.44545 18.1818 5.45455V14.5455Z" fill="white"/>
</g>
<defs>
<clipPath id="clip0_900_485">
<rect width="20" height="20" fill="white"/>
</clipPath>
</defs>
</svg>
