<svg width="16" height="20" viewBox="0 0 16 20" fill="none" xmlns="http://www.w3.org/2000/svg">
<g clip-path="url(#clip0_900_442)">
<path d="M15.1111 9.09082C14.6222 9.09082 14.2222 9.49991 14.2222 9.99991V17.2726C14.2222 17.7726 13.8222 18.1817 13.3333 18.1817H2.66667C2.17778 18.1817 1.77778 17.7726 1.77778 17.2726V9.99991C1.77778 9.49991 1.37778 9.09082 0.888889 9.09082C0.4 9.09082 0 9.49991 0 9.99991V17.2726C0 18.7726 1.2 19.9999 2.66667 19.9999H13.3333C14.8 19.9999 16 18.7726 16 17.2726V9.99991C16 9.49991 15.6 9.09082 15.1111 9.09082Z" fill="white"/>
<path d="M5.07544 5.19082L7.111 3.109V12.7363C7.111 13.2363 7.511 13.6454 7.99989 13.6454C8.48878 13.6454 8.88878 13.2363 8.88878 12.7363V3.09991L10.9243 5.18173C11.1021 5.36354 11.3243 5.44536 11.5554 5.44536C11.7866 5.44536 12.0088 5.35445 12.1866 5.18173C12.5332 4.82718 12.5332 4.25445 12.1866 3.89991L8.631 0.263543C8.551 0.181725 8.45322 0.108998 8.33767 0.0635431C8.12433 -0.0273659 7.87544 -0.0273659 7.66211 0.0635431C7.55544 0.108998 7.45767 0.172634 7.36878 0.263543L3.81322 3.89991C3.46656 4.25445 3.46656 4.82718 3.81322 5.18173C4.15989 5.53627 4.71989 5.53627 5.06656 5.18173L5.07544 5.19082Z" fill="white"/>
</g>
<defs>
<clipPath id="clip0_900_442">
<rect width="16" height="20" fill="white"/>
</clipPath>
</defs>
</svg>
