<svg width="20" height="20" viewBox="0 0 20 20" fill="none" xmlns="http://www.w3.org/2000/svg">
<g clip-path="url(#clip0_900_488)">
<path d="M14.5455 0H5.45455C2.44545 0 0 2.44545 0 5.45455V14.5455C0 17.5545 2.44545 20 5.45455 20H14.5455C17.5545 20 20 17.5545 20 14.5455V5.45455C20 2.44545 17.5545 0 14.5455 0ZM18.1818 14.5455C18.1818 16.5545 16.5545 18.1818 14.5455 18.1818H5.45455C3.44545 18.1818 1.81818 16.5545 1.81818 14.5455V5.45455C1.81818 3.44545 3.44545 1.81818 5.45455 1.81818H14.5455C16.5545 1.81818 18.1818 3.44545 18.1818 5.45455V14.5455Z" fill="white"/>
<path d="M10.7091 5.46374C10.2636 5.40011 9.81817 5.40011 9.37272 5.46374C6.8909 5.82738 5.17272 8.14556 5.54544 10.6274C5.72726 11.8274 6.36362 12.891 7.33635 13.6092C8.12726 14.2001 9.06362 14.5001 10.0364 14.5001C10.2636 14.5001 10.4909 14.4819 10.7091 14.4547C11.9091 14.2728 12.9727 13.6456 13.6909 12.6637C14.4091 11.691 14.7182 10.491 14.5364 9.29102C14.2364 7.30011 12.7 5.75465 10.7091 5.46374ZM12.2364 11.5819C11.8 12.1637 11.1636 12.5456 10.4454 12.6547C8.96362 12.8819 7.57272 11.8456 7.34544 10.3547C7.12726 8.86374 8.15453 7.47283 9.64544 7.25465C9.78181 7.23647 9.90908 7.22738 10.0454 7.22738C10.1818 7.22738 10.3091 7.23647 10.4454 7.25465C11.6454 7.42738 12.5636 8.35465 12.7454 9.55465C12.8545 10.2728 12.6727 10.991 12.2364 11.5819Z" fill="white"/>
<path d="M15.0092 4.09082C14.5092 4.09082 14.1001 4.49991 14.1001 4.99991C14.1001 5.49991 14.5092 5.909 15.0092 5.909C15.5092 5.909 15.9183 5.49991 15.9183 4.99991C15.9183 4.49991 15.5092 4.09082 15.0092 4.09082Z" fill="white"/>
</g>
<defs>
<clipPath id="clip0_900_488">
<rect width="20" height="20" fill="white"/>
</clipPath>
</defs>
</svg>
